<svg width="71" height="71" viewBox="0 0 71 71" fill="none" xmlns="http://www.w3.org/2000/svg">
<path d="M34.0591 34.0955H34.2296V33.9249V23.7292C34.2296 23.0223 34.8087 22.4432 35.5156 22.4432C36.2225 22.4432 36.8016 23.0223 36.8016 23.7292V42.6641C36.8016 43.371 36.2225 43.9501 35.5156 43.9501C34.8087 43.9501 34.2296 43.371 34.2296 42.6641V36.838V36.6675H34.0591H22.4069C21.7 36.6675 21.1209 36.0884 21.1209 35.3815C21.1209 34.6746 21.7 34.0955 22.4069 34.0955H34.0591ZM58.8201 3.16734H58.6496V3.33786V9.16397C58.6496 9.87089 58.0705 10.45 57.3635 10.45C56.6566 10.45 56.0775 9.87089 56.0775 9.16397V1.88133C56.0775 1.17442 56.6566 0.595325 57.3635 0.595325H66.1173C68.4256 0.595325 70.3018 2.48455 70.3018 4.79439V65.9686C70.3018 68.2776 68.4118 70.1676 66.1027 70.1676H4.92854C2.61945 70.1676 0.72948 68.2776 0.72948 65.9686V4.79439C0.72948 2.48529 2.61945 0.595325 4.92854 0.595325H47.1679C47.8748 0.595325 48.4539 1.17442 48.4539 1.88133V9.16397C48.4539 9.87089 47.8748 10.45 47.1679 10.45C46.4609 10.45 45.8818 9.87089 45.8818 9.16397V3.33786V3.16734H45.7113H36.9722H36.8016V3.33786V16.4466C36.8016 17.1535 36.2225 17.7326 35.5156 17.7326C34.8087 17.7326 34.2296 17.1535 34.2296 16.4466V3.33786V3.16734H34.0591H4.92854C4.03328 3.16734 3.3015 3.89912 3.3015 4.79439V33.9249V34.0955H3.47202H16.5371C17.244 34.0955 17.8231 34.6746 17.8231 35.3815C17.8231 36.0884 17.244 36.6675 16.5371 36.6675H3.47202H3.3015V36.838V65.9686C3.3015 66.8638 4.03328 67.5956 4.92854 67.5956H34.0591H34.2296V67.4251V51.4033C34.2296 50.6964 34.8087 50.1173 35.5156 50.1173C36.2225 50.1173 36.8016 50.6964 36.8016 51.4033V67.4251V67.5956H36.9722H66.1027C66.998 67.5956 67.7298 66.8638 67.7298 65.9686V44.1206V43.9501H67.5592H45.7113C45.0044 43.9501 44.4253 43.371 44.4253 42.6641C44.4253 41.9572 45.0044 41.3781 45.7113 41.3781H67.5592H67.7298V41.2076V33.9249V33.7544H67.5592H52.994C52.287 33.7544 51.708 33.1753 51.708 32.4684C51.708 31.7615 52.287 31.1824 52.994 31.1824H67.5592H67.7298V31.0119V4.79439C67.7298 3.90024 66.9991 3.16734 66.1173 3.16734H58.8201Z" fill="#655D4D" stroke="white" stroke-width="0.341041"/>
</svg>
