<svg width="70" height="72" viewBox="0 0 70 72" fill="none" xmlns="http://www.w3.org/2000/svg">
<path d="M69.021 2.03798C68.5845 1.33642 67.9003 0.846897 67.0954 0.659201C66.2905 0.472046 65.4607 0.609438 64.7592 1.04595L11.3794 34.2644C10.8926 34.5678 10.7433 35.2083 11.0467 35.6951C11.2436 36.011 11.5822 36.1852 11.9295 36.1852C12.1166 36.1852 12.3065 36.1343 12.4769 36.0278L65.8567 2.80932C66.0871 2.66598 66.3603 2.62109 66.6242 2.68221C66.8893 2.74387 67.1138 2.90452 67.2577 3.13549C67.5535 3.61149 67.4075 4.24003 66.9315 4.53645L65.5787 5.37811C65.57 5.38352 65.5614 5.38839 65.5532 5.3938L60.9366 8.26712C60.4497 8.57003 60.3005 9.21046 60.6039 9.69728C60.9068 10.1841 61.5473 10.3334 62.0341 10.0299L65.0756 8.1373V29.6077H47.5231V19.061L58.5149 12.2206C59.0017 11.9177 59.151 11.2773 58.8481 10.7899C58.5447 10.3031 57.9042 10.1538 57.4174 10.4573L26.3296 29.8035C26.3156 29.8121 26.3009 29.8208 26.2869 29.83L6.72321 42.0048C6.69292 42.0216 6.66317 42.04 6.63504 42.0595L4.08465 43.6465C3.85422 43.7898 3.58106 43.8353 3.31655 43.7736C3.05205 43.7119 2.82757 43.5513 2.68369 43.3203C2.54035 43.0899 2.49491 42.8173 2.55657 42.5522C2.61824 42.2877 2.77889 42.0632 3.00986 41.9194L8.95123 38.2222C9.43859 37.9188 9.58734 37.2783 9.28443 36.7915C8.98098 36.3042 8.34054 36.1554 7.85372 36.4589L1.91235 40.156C1.21079 40.5925 0.721263 41.2768 0.533567 42.0816C0.346412 42.8865 0.483262 43.7163 0.920318 44.4178C1.35683 45.1199 2.04055 45.6095 2.84542 45.7966C3.08072 45.8518 3.31764 45.8788 3.55293 45.8788C4.12413 45.8788 4.68506 45.7193 5.18216 45.4099L6.18771 44.7846V54.0579C4.89872 54.217 3.89749 55.3183 3.89749 56.6494C3.89749 57.9806 4.89926 59.0825 6.18825 59.241V69.5237C6.18825 70.6001 7.06399 71.4758 8.1404 71.4758H65.2C66.2764 71.4758 67.1522 70.6001 67.1522 69.5237V59.9485C67.1522 59.3751 66.6875 58.9099 66.1136 58.9099C65.5397 58.9099 65.0751 59.3751 65.0751 59.9485V69.3987H8.26535V59.2604H26.8559C27.4298 59.2604 27.8945 58.7952 27.8945 58.2219V47.045H46.485C47.0584 47.045 47.5236 46.5798 47.5236 46.0065V34.8296H65.0751V55.7937C65.0751 56.3676 65.5403 56.8323 66.1136 56.8323C66.6875 56.8323 67.1522 56.3676 67.1522 55.7937V30.6673C67.1527 30.6603 67.1527 30.6533 67.1527 30.6462V6.84506L68.0285 6.29982C69.477 5.39866 69.9222 3.48654 69.021 2.03798ZM45.446 29.6272C44.157 29.7856 43.1557 30.8875 43.1557 32.2187C43.1557 33.5504 44.157 34.6517 45.4465 34.8102V41.8231H27.8945V31.2759L45.446 20.3538V29.6272ZM25.8174 32.5681V41.8425C24.5284 42.001 23.5266 43.1029 23.5266 44.4341C23.5266 45.7652 24.5284 46.8671 25.8174 47.0256V54.0385H8.26481V43.4912L25.8174 32.5681ZM25.8174 57.1833H6.50901C6.21421 57.1833 5.97459 56.9437 5.97459 56.6494C5.97459 56.3552 6.21421 56.1156 6.50901 56.1156H25.8174V57.1833ZM45.4465 44.9679H26.1376C25.8433 44.9679 25.6037 44.7283 25.6037 44.4341C25.6037 44.1398 25.8433 43.9002 26.1376 43.9002H45.4465V44.9679ZM45.7667 32.7525C45.4719 32.7525 45.2328 32.5129 45.2328 32.2187C45.2328 31.9244 45.4719 31.6848 45.7667 31.6848H65.0751V32.7531H45.7667V32.7525Z" fill="#655D4D"/>
</svg>
