<svg width="71" height="71" viewBox="0 0 71 71" fill="none" xmlns="http://www.w3.org/2000/svg">
<path d="M67.2555 0.26627H3.77516C2.21307 0.208784 0.529183 1.68717 0.55936 3.48194V26.0636C0.55936 26.6291 1.01775 27.0877 1.58346 27.0877C2.14917 27.0877 2.60755 26.6291 2.60755 26.0636V3.55936L34.4911 31.6902V58.0158C34.4911 58.5814 34.9495 59.0399 35.5152 59.0399C36.0809 59.0399 36.5393 58.5814 36.5393 58.0158V32.2522H68.4229V66.9623C68.4229 67.6061 67.8992 68.1298 67.2554 68.1298H36.5393V62.8692C36.5393 62.3036 36.0809 61.8451 35.5152 61.8451C34.9495 61.8451 34.4911 62.3036 34.4911 62.8692V68.1298H3.77503C3.13121 68.1298 2.60755 67.6061 2.60755 66.9623V31.2281C2.60755 30.6626 2.14917 30.204 1.58346 30.204C1.01775 30.204 0.55936 30.6626 0.55936 31.2281V66.9623C0.55936 68.7355 2.00183 70.178 3.77503 70.178H67.2554C69.0285 70.178 70.4711 68.7355 70.4711 66.9623V3.48194C70.4711 1.70875 69.0286 0.26627 67.2555 0.26627ZM68.4229 3.48194V27.8484L60.5959 16.1177C60.2818 15.6471 59.646 15.5203 59.1757 15.8342C58.7053 16.1481 58.5783 16.784 58.8923 17.2544L60.94 20.3234H50.492L43.9818 12.4095H55.6595L56.2408 13.2806C56.5548 13.7512 57.1907 13.878 57.6611 13.5641C58.1315 13.2502 58.2585 12.6143 57.9444 12.1439L51.386 2.31433H67.2553C67.8992 2.31446 68.4229 2.83812 68.4229 3.48194ZM47.2567 30.204L39.5965 22.3716H49.5247L55.9679 30.204H47.2567ZM37.5933 20.3234L29.8533 12.4095H41.3295L47.8397 20.3234H37.5933ZM15.7342 12.4096H26.9883L34.7282 20.3236H24.7039L15.7342 12.4096ZM33.025 2.31447L39.6446 10.3614H27.8502L19.9802 2.31447H33.025ZM54.2929 10.3614H42.2968L35.6772 2.31447H48.9238L54.2929 10.3614ZM17.1152 2.31447L24.9852 10.3614H13.4129L4.2924 2.31447H17.1152ZM35.9025 30.204L27.0252 22.3716H36.7314L44.3917 30.204H35.9025ZM58.6201 30.204L52.1769 22.3716H62.3066L67.5326 30.204H58.6201Z" fill="#655D4D"/>
</svg>
