<svg width="62" height="71" viewBox="0 0 62 71" fill="none" xmlns="http://www.w3.org/2000/svg">
<path d="M57.4517 0.912972L57.4517 0.913024L57.4547 0.91305C59.8326 0.933097 61.7611 2.87381 61.7611 5.25648V21.956C61.7611 22.4736 61.3416 22.893 60.8242 22.893C60.3068 22.893 59.8872 22.4735 59.8872 21.956V5.25648C59.8872 3.89462 58.7793 2.78666 57.4174 2.78666H40.95C39.5881 2.78666 38.4801 3.89462 38.4801 5.25648V66.1693C38.4801 67.5146 39.5612 68.6119 40.9 68.6386H40.9017H40.9491C40.9585 68.6386 40.9679 68.6389 40.9785 68.6392H40.9808H57.4176C58.7794 68.6392 59.8874 67.5312 59.8874 66.1693V26.7255C59.8874 26.2079 60.3069 25.7885 60.8243 25.7885C61.3418 25.7885 61.7613 26.2079 61.7613 26.7255V66.1693C61.7613 68.5645 59.8125 70.5131 57.4176 70.5131H40.9501C40.9286 70.5131 40.9072 70.5128 40.8852 70.5125H40.8841H21.9014C19.5064 70.5125 17.5577 68.5639 17.5577 66.1688L17.5583 43.0843L17.5583 42.9992H17.4732H2.24495C1.35263 42.9992 0.626652 42.2733 0.626652 41.3809V30.0449C0.626652 29.1526 1.35263 28.4266 2.24495 28.4266H17.4733H17.5584L17.5584 28.3415L17.5577 5.25594C17.5577 2.86083 19.5064 0.912235 21.9014 0.912235H57.4174C57.429 0.912235 57.4405 0.912482 57.4517 0.912972ZM37.2916 2.91716L37.3757 2.78612H37.22H21.9014C20.5394 2.78612 19.4316 3.89407 19.4315 5.25593V22.2527V22.3218L19.4992 22.336C19.6976 22.3774 19.8895 22.4565 20.0644 22.573C20.0644 22.573 20.0645 22.573 20.0645 22.573L21.6592 23.6362L21.7915 23.7243V23.5654V14.5485C21.7915 14.0309 22.211 13.6115 22.7284 13.6115C23.2459 13.6115 23.6654 14.0309 23.6654 14.5485V24.9281V24.9736L23.7033 24.9989L36.474 33.5126L36.6063 33.6008V33.4418V7.10513V7.02004H36.5212H23.7505H23.6654V7.10513V9.77889C23.6654 10.2965 23.2459 10.7158 22.7284 10.7158C22.211 10.7158 21.7915 10.2965 21.7915 9.77889V6.0831C21.7915 5.56553 22.211 5.14616 22.7284 5.14616H36.5257H36.6071L36.6107 5.06477C36.645 4.27666 36.8904 3.54237 37.2916 2.91716ZM19.4993 49.0899L19.4316 49.104V49.1732V66.1688C19.4316 67.4629 20.4316 68.5274 21.6997 68.6304L21.7916 68.6379V68.5456V47.8605V47.7015L21.6593 47.7897L20.0647 48.8527C19.8898 48.9693 19.6977 49.0485 19.4993 49.0899ZM23.7033 46.427L23.6654 46.4522V46.4978V68.4683V68.5534V68.5535H23.7505V68.6385H37.219H37.3747L37.2906 68.5075C36.8575 67.832 36.6061 67.0296 36.6061 66.1692V37.9837V37.8247L36.4738 37.9129L30.6556 41.7917L30.7028 41.8625L30.6556 41.7917C30.2253 42.0788 29.6435 41.9625 29.3564 41.5319L29.2856 41.5791L29.3564 41.5319C29.0693 41.1014 29.1856 40.5198 29.6163 40.2327L36.29 35.7836L36.3962 35.7128L36.29 35.642L19.5644 24.4918L19.4321 24.4036V24.5626V29.0229C19.4321 29.7273 18.8589 30.3005 18.1545 30.3005H2.58562H2.50053V30.3856V41.0403V41.1254H2.58562H18.1545C18.8589 41.1254 19.4321 41.6986 19.4321 42.403V46.8632V47.0222L19.5644 46.934L25.5414 42.9495C25.9719 42.6625 26.5536 42.7789 26.8406 43.2093L26.9114 43.1621L26.8406 43.2093C27.1277 43.6398 27.0114 44.2215 26.5807 44.5086L23.7033 46.427ZM44.9509 40.8828C42.7006 40.8828 40.8392 38.5825 40.8392 35.713C40.8392 32.8434 42.7006 30.5431 44.9509 30.5431C47.2012 30.5431 49.0626 32.8436 49.0626 35.713C49.0626 38.5824 47.2012 40.8828 44.9509 40.8828ZM44.9509 39.0089C45.5724 39.0089 46.1337 38.6178 46.5355 38.0184C46.9381 37.4179 47.1887 36.5984 47.1887 35.713C47.1887 34.8275 46.9381 34.0079 46.5355 33.4074C46.1337 32.8081 45.5724 32.417 44.9509 32.417C44.3294 32.417 43.7681 32.8082 43.3663 33.4075C42.9637 34.008 42.7131 34.8275 42.7131 35.713C42.7131 36.5984 42.9637 37.4179 43.3663 38.0184C43.7681 38.6178 44.3294 39.0089 44.9509 39.0089Z" fill="#655D4D" stroke="white" stroke-width="0.170173"/>
</svg>
