<svg width="60" height="56" viewBox="0 0 60 56" fill="none" xmlns="http://www.w3.org/2000/svg">
<path fill-rule="evenodd" clip-rule="evenodd" d="M47.8487 47.0525H12.79C12.5858 47.0525 12.4214 46.8874 12.4214 46.684V9.68687C12.4214 9.48345 12.5858 9.31836 12.79 9.31836H47.8487C48.0529 9.31836 48.2172 9.48345 48.2172 9.68687V46.684C48.2172 46.8874 48.0521 47.0525 47.8487 47.0525ZM13.1585 46.3155H47.4802V10.0554H13.1585V46.3155Z" fill="#655D4D"/>
<path fill-rule="evenodd" clip-rule="evenodd" d="M47.8487 12.0682H12.79C12.5858 12.0682 12.4214 11.9031 12.4214 11.6997C12.4214 11.4963 12.5858 11.3312 12.79 11.3312H47.8487C48.0529 11.3312 48.2172 11.4963 48.2172 11.6997C48.2172 11.9031 48.0529 12.0682 47.8487 12.0682Z" fill="#655D4D"/>
<path fill-rule="evenodd" clip-rule="evenodd" d="M47.8487 14.5814H12.79C12.5858 14.5814 12.4214 14.4164 12.4214 14.2129C12.4214 14.0095 12.5858 13.8444 12.79 13.8444H47.8487C48.0529 13.8444 48.2172 14.0095 48.2172 14.2129C48.2172 14.4164 48.0529 14.5814 47.8487 14.5814Z" fill="#655D4D"/>
<path fill-rule="evenodd" clip-rule="evenodd" d="M39.5999 47.0525H15.2384C15.0349 47.0525 14.8698 46.8874 14.8698 46.684V17.5494C14.8698 17.346 15.0349 17.1809 15.2384 17.1809H39.5999C39.8033 17.1809 39.9677 17.346 39.9677 17.5494V46.684C39.9684 46.8874 39.8033 47.0525 39.5999 47.0525ZM15.6069 46.3155H39.2314V17.918H15.6069V46.3155Z" fill="#655D4D"/>
<path fill-rule="evenodd" clip-rule="evenodd" d="M37.125 44.5776H17.7133C17.5099 44.5776 17.3448 44.4125 17.3448 44.2091V20.0244C17.3448 19.8209 17.5099 19.6559 17.7133 19.6559H37.125C37.3284 19.6559 37.4935 19.8209 37.4935 20.0244V44.2091C37.4935 44.4125 37.3284 44.5776 37.125 44.5776ZM18.0818 43.8405H36.7565V20.3929H18.0818V43.8405Z" fill="#655D4D"/>
<path fill-rule="evenodd" clip-rule="evenodd" d="M28.6433 44.5776H26.1949C25.9915 44.5776 25.8264 44.4125 25.8264 44.2091V20.0244C25.8264 19.8209 25.9915 19.6559 26.1949 19.6559H28.6433C28.8475 19.6559 29.0118 19.8209 29.0118 20.0244V44.2091C29.0118 44.4125 28.8475 44.5776 28.6433 44.5776ZM26.5635 43.8405H28.2748V20.3929H26.5635V43.8405Z" fill="#655D4D"/>
<path fill-rule="evenodd" clip-rule="evenodd" d="M21.9268 34.6764C21.7234 34.6764 21.5583 34.5113 21.5583 34.3079V29.9255C21.5583 29.7221 21.7234 29.557 21.9268 29.557C22.131 29.557 22.2954 29.7221 22.2954 29.9255V34.3079C22.2954 34.5113 22.131 34.6764 21.9268 34.6764Z" fill="#655D4D"/>
<path fill-rule="evenodd" clip-rule="evenodd" d="M23.7959 31.8411C23.7134 31.8411 23.6301 31.8131 23.5616 31.7563L21.9268 30.4039L20.2929 31.7563C20.1366 31.886 19.9037 31.8639 19.774 31.7077C19.6443 31.5507 19.6664 31.3185 19.8234 31.1881L21.6925 29.6418C21.8288 29.529 22.0256 29.529 22.162 29.6418L24.031 31.1881C24.188 31.3185 24.2101 31.5507 24.0804 31.7077C24.0075 31.7954 23.9021 31.8411 23.7959 31.8411Z" fill="#655D4D"/>
<path fill-rule="evenodd" clip-rule="evenodd" d="M32.9114 34.6764C32.708 34.6764 32.5429 34.5113 32.5429 34.3079V29.9255C32.5429 29.7214 32.708 29.557 32.9114 29.557C33.1149 29.557 33.28 29.7214 33.28 29.9255V34.3079C33.28 34.5113 33.1149 34.6764 32.9114 34.6764Z" fill="#655D4D"/>
<path fill-rule="evenodd" clip-rule="evenodd" d="M32.9114 34.6764C32.8282 34.6764 32.7449 34.6484 32.6763 34.5916L30.8072 33.0446C30.6503 32.9149 30.6289 32.6827 30.7586 32.5258C30.8883 32.3695 31.1205 32.3474 31.2775 32.4771L32.9114 33.8296L34.5454 32.4771C34.7024 32.3474 34.9346 32.3695 35.0643 32.5258C35.194 32.6827 35.1726 32.9149 35.0156 33.0446L33.1466 34.5916C33.078 34.6484 32.9947 34.6764 32.9114 34.6764Z" fill="#655D4D"/>
<path fill-rule="evenodd" clip-rule="evenodd" d="M45.3531 30.9869C45.3531 30.9869 45.3524 30.9869 45.3517 30.9869H41.5656C41.4314 30.9869 41.3076 30.9139 41.2428 30.796C41.1779 30.6788 41.1823 30.5351 41.2538 30.4216L43.187 27.36C43.2548 27.2531 43.3728 27.1882 43.4988 27.1882H43.5025C43.63 27.1897 43.7479 27.2568 43.8142 27.3659L45.6516 30.4017C45.6959 30.4628 45.7216 30.5373 45.7216 30.6183C45.7216 30.8218 45.5566 30.9869 45.3531 30.9869ZM42.2341 30.2498H44.6979L43.4922 28.2577L42.2341 30.2498Z" fill="#655D4D"/>
<path fill-rule="evenodd" clip-rule="evenodd" d="M43.4988 37.0452C43.3728 37.0452 43.2548 36.9803 43.187 36.8735L41.2538 33.8119C41.1823 33.6984 41.1779 33.5546 41.2428 33.4375C41.3076 33.3195 41.4314 33.2466 41.5656 33.2466H45.3517C45.4851 33.2466 45.6074 33.3181 45.673 33.4345C45.7379 33.5502 45.7357 33.6925 45.6671 33.806L43.8142 36.8676C43.7479 36.9766 43.63 37.0437 43.5025 37.0452C43.501 37.0452 43.5003 37.0452 43.4988 37.0452ZM42.2341 33.9836L43.4922 35.9758L44.6979 33.9836H42.2341Z" fill="#655D4D"/>
</svg>
