<svg width="60" height="56" viewBox="0 0 60 56" fill="none" xmlns="http://www.w3.org/2000/svg">
<path d="M50.9143 6.70361H9.29389C9.11585 6.70361 8.9451 6.77434 8.81921 6.90023C8.69331 7.02612 8.62259 7.19687 8.62259 7.37491V48.9953C8.62259 49.1734 8.69331 49.3441 8.81921 49.47C8.9451 49.5959 9.11585 49.6666 9.29389 49.6666H50.9143C51.0924 49.6666 51.2631 49.5959 51.389 49.47C51.5149 49.3441 51.5856 49.1734 51.5856 48.9953V7.37491C51.5856 7.19687 51.5149 7.02612 51.389 6.90023C51.2631 6.77434 51.0924 6.70361 50.9143 6.70361ZM50.243 48.3241H9.96518V8.04621H50.243V48.3241Z" fill="#655D4D"/>
<path d="M12.6504 27.5138H28.7615C28.9395 27.5138 29.1103 27.4431 29.2362 27.3172C29.3621 27.1913 29.4328 27.0206 29.4328 26.8425V10.7314C29.4328 10.5534 29.3621 10.3826 29.2362 10.2567C29.1103 10.1308 28.9395 10.0601 28.7615 10.0601H12.6504C12.4723 10.0601 12.3016 10.1308 12.1757 10.2567C12.0498 10.3826 11.9791 10.5534 11.9791 10.7314V26.8425C11.9791 27.0206 12.0498 27.1913 12.1757 27.3172C12.3016 27.4431 12.4723 27.5138 12.6504 27.5138ZM18.2987 26.1712L24.537 19.9329L23.5878 18.9837L16.4002 26.1712H14.2709L28.0902 12.3519V26.1712H18.2987ZM23.1132 11.4027L16.2036 18.3124L17.1528 19.2616L25.0116 11.4027H27.141L13.3217 25.222V11.4027H23.1132Z" fill="#655D4D"/>
<path d="M31.4467 27.5138H47.5578C47.7359 27.5138 47.9066 27.4431 48.0325 27.3172C48.1584 27.1913 48.2291 27.0206 48.2291 26.8425V10.7314C48.2291 10.5534 48.1584 10.3826 48.0325 10.2567C47.9066 10.1308 47.7359 10.0601 47.5578 10.0601H31.4467C31.2687 10.0601 31.0979 10.1308 30.972 10.2567C30.8461 10.3826 30.7754 10.5534 30.7754 10.7314V26.8425C30.7754 27.0206 30.8461 27.1913 30.972 27.3172C31.0979 27.4431 31.2687 27.5138 31.4467 27.5138ZM32.118 11.4027H46.8865V26.1712H32.118V11.4027Z" fill="#655D4D"/>
<path d="M12.6504 46.3102H28.7615C28.9395 46.3102 29.1103 46.2394 29.2362 46.1135C29.3621 45.9876 29.4328 45.8169 29.4328 45.6389V29.5277C29.4328 29.3497 29.3621 29.1789 29.2362 29.053C29.1103 28.9272 28.9395 28.8564 28.7615 28.8564H12.6504C12.4723 28.8564 12.3016 28.9272 12.1757 29.053C12.0498 29.1789 11.9791 29.3497 11.9791 29.5277V45.6389C11.9791 45.8169 12.0498 45.9876 12.1757 46.1135C12.3016 46.2394 12.4723 46.3102 12.6504 46.3102ZM13.3217 30.199H28.0902V44.9676H13.3217V30.199Z" fill="#655D4D"/>
<path d="M31.4467 46.3102H47.5578C47.7359 46.3102 47.9066 46.2394 48.0325 46.1135C48.1584 45.9876 48.2291 45.8169 48.2291 45.6389V29.5277C48.2291 29.3497 48.1584 29.1789 48.0325 29.053C47.9066 28.9272 47.7359 28.8564 47.5578 28.8564H31.4467C31.2687 28.8564 31.0979 28.9272 30.972 29.053C30.8461 29.1789 30.7754 29.3497 30.7754 29.5277V45.6389C30.7754 45.8169 30.8461 45.9876 30.972 46.1135C31.0979 46.2394 31.2687 46.3102 31.4467 46.3102ZM37.095 44.9676L43.3334 38.7292L42.3841 37.78L35.1966 44.9676H33.0672L46.8865 31.1482V44.9676H37.095ZM41.9095 30.199L34.9999 37.1087L35.9491 38.0579L43.808 30.199H45.9373L32.118 44.0183V30.199H41.9095Z" fill="#655D4D"/>
</svg>
