<svg width="60" height="55" viewBox="0 0 60 55" fill="none" xmlns="http://www.w3.org/2000/svg">
<path d="M28.5506 29.6008L28.5506 29.6008L28.1209 29.8157C28.1209 29.8157 28.1209 29.8157 28.1209 29.8157C28.1209 29.8157 28.1209 29.8157 28.1209 29.8157C27.6539 30.0492 27.086 29.8599 26.8525 29.3929C26.6191 28.9259 26.8083 28.358 27.2754 28.1245L27.7051 27.9097L27.7051 27.9097C28.6632 27.4306 29.2684 26.4514 29.2684 25.3802V19.5366C29.2684 19.0144 29.6916 18.5912 30.2137 18.5912C30.7359 18.5912 31.1591 19.0144 31.1591 19.5366V25.3802C31.1591 27.1676 30.1493 28.8015 28.5506 29.6008ZM37.7554 34.7118L37.9615 34.9466L37.7554 34.7118C33.5779 38.3792 26.8496 38.3792 22.6721 34.7118L22.466 34.9466L22.6721 34.7118C22.2797 34.3674 22.2409 33.77 22.5853 33.3776C22.9298 32.9853 23.5271 32.9464 23.9195 33.2909C27.3834 36.3318 33.0441 36.3318 36.5079 33.2909C36.9004 32.9464 37.4977 32.9853 37.8421 33.3776C38.1866 33.77 38.1478 34.3674 37.7554 34.7118ZM11.6591 13.8764C11.6591 11.2703 13.7717 9.15763 16.3779 9.15763H21.4091C21.9312 9.15763 22.3545 9.58089 22.3545 10.103C22.3545 10.6252 21.9312 11.0484 21.4091 11.0484H16.3779C14.816 11.0484 13.5498 12.3146 13.5498 13.8764V18.9077C13.5498 19.4298 13.1266 19.8531 12.6044 19.8531C12.0823 19.8531 11.6591 19.4298 11.6591 18.9077V13.8764ZM38.073 10.103C38.073 9.58089 38.4962 9.15763 39.0184 9.15763H44.0496C46.6558 9.15763 48.7684 11.2703 48.7684 13.8764V18.9077C48.7684 19.4298 48.3452 19.8531 47.823 19.8531C47.3009 19.8531 46.8776 19.4298 46.8776 18.9077V13.8764C46.8776 12.3146 45.6115 11.0484 44.0496 11.0484H39.0184C38.4962 11.0484 38.073 10.6252 38.073 10.103ZM12.6044 35.5716C13.1266 35.5716 13.5498 35.9948 13.5498 36.517V41.5482C13.5498 43.11 14.816 44.3762 16.3779 44.3762H21.4091C21.9312 44.3762 22.3545 44.7995 22.3545 45.3216C22.3545 45.8438 21.9312 46.267 21.4091 46.267H16.3779C13.7717 46.267 11.6591 44.1543 11.6591 41.5482V36.517C11.6591 35.9948 12.0823 35.5716 12.6044 35.5716ZM47.823 35.5716C48.3452 35.5716 48.7684 35.9948 48.7684 36.517V41.5482C48.7684 44.1543 46.6558 46.267 44.0496 46.267H39.0184C38.4962 46.267 38.073 45.8438 38.073 45.3216C38.073 44.7995 38.4962 44.3762 39.0184 44.3762H44.0496C45.6115 44.3762 46.8776 43.11 46.8776 41.5482V36.517C46.8776 35.9948 47.3009 35.5716 47.823 35.5716ZM22.038 18.5912C22.5601 18.5912 22.9834 19.0144 22.9834 19.5366V22.0522C22.9834 22.5743 22.5601 22.9976 22.038 22.9976C21.5159 22.9976 21.0926 22.5743 21.0926 22.0522V19.5366C21.0926 19.0144 21.5159 18.5912 22.038 18.5912ZM38.3895 18.5912C38.9116 18.5912 39.3349 19.0144 39.3349 19.5366V22.0522C39.3349 22.5743 38.9116 22.9976 38.3895 22.9976C37.8673 22.9976 37.4441 22.5743 37.4441 22.0522V19.5366C37.4441 19.0144 37.8673 18.5912 38.3895 18.5912Z" fill="#655D4D" stroke="white" stroke-width="0.624831"/>
</svg>
