<svg width="59" height="56" viewBox="0 0 59 56" fill="none" xmlns="http://www.w3.org/2000/svg">
<path d="M52.061 7.16309H20.4682C16.189 7.16309 12.7071 12.1186 12.7071 18.2102C12.7071 18.2144 12.7095 18.2181 12.7096 18.2224C12.713 24.0877 15.9498 28.8839 20.0141 29.2217V35.0716H13.7328V30.5852C13.7328 29.2538 12.6498 28.1707 11.3184 28.1707H7.33491L7.33491 26.9956C7.33491 26.6957 7.09155 26.4523 6.79161 26.4523C6.49166 26.4523 6.24831 26.6957 6.24831 26.9956L6.24831 48.6646C6.24831 48.9646 6.49166 49.208 6.79161 49.208C7.09155 49.208 7.33491 48.9646 7.33491 48.6646L7.33491 48.0571H11.3184C12.6498 48.0571 13.7328 46.974 13.7328 45.6427V41.1088H20.0141V42.0405C20.0141 43.3718 21.0971 44.4549 22.4285 44.4549H25.6147C26.9454 44.4549 28.0285 43.3718 28.0285 42.0405V29.2545H41.1264C45.4049 29.2545 48.8861 24.3011 48.8861 18.213C48.8861 16.5703 48.6335 14.976 48.161 13.5292C52.8999 11.4308 52.6172 7.81143 52.6015 7.65332C52.5752 7.38788 52.303 7.16309 52.061 7.16309ZM45.3695 9.65816L45.3664 9.66064C45.363 9.66338 45.3587 9.66382 45.3554 9.66665C45.3524 9.66913 45.3513 9.67284 45.3484 9.67532C43.8483 10.8295 42.8632 12.1534 42.3014 13.063C41.8034 13.868 40.9495 14.3484 40.0179 14.3484H36.8811C36.0195 14.3484 35.177 14.6483 34.5092 15.1916C34.4269 15.2585 32.0911 17.157 32.2001 17.0684C31.7247 17.4547 31.127 17.6669 30.5157 17.6669H13.8143C13.9689 13.423 16.2642 8.25038 20.4689 8.25038C21.4535 8.25035 41.8558 8.24983 47.7252 8.24967C46.8905 8.62674 46.1038 9.09647 45.3695 9.65816ZM39.086 15.435H40.0179C41.0152 15.435 41.9464 15.0436 42.6427 14.3607C43.18 15.2077 43.6533 16.5308 43.6533 18.206C43.6533 21.2302 42.1323 23.2371 41.1264 23.2371C40.1204 23.2371 38.5995 21.2302 38.5995 18.206C38.5995 17.2147 38.7727 16.2689 39.086 15.435ZM12.6462 45.6427C12.6462 46.3748 12.0506 46.9705 11.3184 46.9705H7.33491V29.2573H11.3184C12.0506 29.2573 12.6462 29.853 12.6462 30.5852V45.6427ZM13.7328 40.0222V36.1582H20.0141V40.0222H13.7328ZM26.9418 42.0405C26.9418 42.7726 26.3462 43.3683 25.6147 43.3683H22.4285C21.6963 43.3683 21.1006 42.7726 21.1006 42.0405C21.1006 37.5098 21.1006 33.6933 21.1006 29.2573H26.9418V42.0405ZM37.7711 28.1679H20.4689C16.9119 28.1679 14.0041 23.9906 13.8142 18.7535H30.5158C31.3753 18.7535 32.2171 18.4543 32.8849 17.9117L33.3896 17.5015C33.3791 17.7389 33.3674 17.9765 33.3674 18.213C33.3674 21.892 34.7539 26.0982 37.7711 28.1679ZM41.1264 28.1679C37.4471 28.1679 34.454 23.7019 34.454 18.213C34.454 17.6489 34.4916 17.0937 34.5558 16.5539L35.1953 16.0342C35.67 15.6479 36.2685 15.435 36.8811 15.435H37.9283C37.6569 16.292 37.5129 17.2343 37.5129 18.206C37.5129 21.465 39.2015 24.3237 41.1264 24.3237C43.0513 24.3237 44.7399 21.465 44.7399 18.206C44.7399 16.3725 44.2194 14.6376 43.3397 13.4564C43.8106 12.7244 44.5494 11.7612 45.6084 10.8641C47.0011 12.7594 47.7995 15.3966 47.7995 18.213C47.7995 23.7019 44.8057 28.1679 41.1264 28.1679ZM47.7807 12.512C47.4254 11.6678 46.982 10.8983 46.4732 10.2075C47.9405 9.19569 49.6239 8.56193 51.4924 8.31848C51.3634 9.26413 50.7167 11.1889 47.7807 12.512Z" fill="#655D4D"/>
<path d="M33.9078 9.92698H28.5251C28.2251 9.92698 27.9818 10.1703 27.9818 10.4703C27.9818 10.7702 28.2251 11.0136 28.5251 11.0136H33.9078C34.2078 11.0136 34.4511 10.7702 34.4511 10.4703C34.4511 10.1703 34.2078 9.92698 33.9078 9.92698Z" fill="#655D4D"/>
<path d="M26.0958 9.92698H25.8439C25.544 9.92698 25.3006 10.1703 25.3006 10.4703C25.3006 10.7702 25.544 11.0136 25.8439 11.0136H26.0958C26.3957 11.0136 26.6391 10.7702 26.6391 10.4703C26.6391 10.1703 26.3957 9.92698 26.0958 9.92698Z" fill="#655D4D"/>
</svg>
