<svg width="128" height="277" viewBox="0 0 128 277" fill="none" xmlns="http://www.w3.org/2000/svg">
<path d="M0.0823975 0.988281V276.497H127.918V0.988281H0.0823975ZM83.022 50.9522C84.3271 48.2985 85.6105 45.623 87.2201 42.3168C87.5899 43.9046 87.8509 44.8182 88.0249 45.7317C88.2207 46.7541 88.3294 47.7765 88.5252 48.7988C89.4605 53.8452 89.243 54.0627 84.2184 52.8881C84.1531 52.8881 84.0661 52.8881 84.0008 52.8446C82.8915 52.6054 82.4782 52.018 83.022 50.9304V50.9522ZM81.2166 67.005C81.6951 64.8298 81.9127 62.6111 82.1084 60.3924C82.4782 56.2379 82.4129 56.3032 86.4153 56.8905C87.6551 57.0645 87.6986 57.4343 87.6334 58.5653C87.4811 61.1103 86.9591 63.5682 86.6328 66.0697C85.7192 73.052 84.7839 80.0126 83.8486 86.9949C83.6746 86.9949 83.5006 86.9732 83.3265 86.9514C83.0655 85.581 82.7827 84.2324 82.5217 82.8621C81.4559 77.6199 79.9985 72.443 81.2166 66.9833V67.005ZM46.0222 67.005C47.2403 72.4647 45.7829 77.6417 44.7171 82.8839C44.4343 84.2325 44.1733 85.6029 43.9123 86.9732C43.7383 86.9732 43.5642 86.995 43.3902 87.0167C42.4549 80.0344 41.5196 73.0738 40.606 66.0915C40.2797 63.59 39.7359 61.1103 39.6054 58.587C39.5402 57.456 39.6054 57.0862 40.8235 56.9122C44.8259 56.3249 44.7823 56.2597 45.1304 60.4143C45.3261 62.6329 45.5437 64.8734 46.0222 67.0268V67.005ZM38.7136 48.7988C38.9094 47.7765 38.9964 46.7323 39.2139 45.7317C39.3879 44.7964 39.6489 43.8829 40.0187 42.3168C41.6283 45.623 42.9117 48.2985 44.2168 50.9522C44.7606 52.0398 44.3473 52.6271 43.238 52.8663C43.1727 52.8663 43.0857 52.8663 43.0205 52.9098C37.9958 54.0844 37.7783 53.8669 38.7136 48.8205V48.7988ZM86.9373 247.893C78.8892 250.612 70.6887 252.287 62.162 252.048C54.1791 252.265 46.479 250.699 38.9094 248.263C37.7565 247.893 37.1257 247.458 37.4737 246.066C38.7353 240.867 39.9534 235.647 41.1063 230.405C41.9546 226.576 44.4343 224.118 47.7406 222.443C55.2015 218.68 63.0756 218.506 71.0803 219.942C75.1696 220.681 78.8892 222.204 82.1084 225.01C84.9797 227.512 85.393 230.927 86.176 234.211C87.0461 237.757 87.6551 241.368 88.6557 244.87C89.1778 246.74 88.5687 247.328 86.9156 247.893H86.9373ZM107.884 97.2183C104.752 102.765 102.077 108.486 100.38 114.642C99.7274 117.012 99.4446 119.47 99.4229 121.928C99.3576 128.106 99.5099 134.305 98.096 140.396C96.9867 145.159 94.942 149.575 92.8538 153.925C91.44 156.884 92.049 159.581 92.5058 162.387C93.8327 170.457 95.5728 178.505 95.6598 186.705C95.7468 195.645 95.6381 204.585 95.5728 213.525C95.5075 222.77 94.942 232.014 95.3553 241.259C95.377 241.781 95.3553 242.303 95.3553 242.825C95.3553 243.477 95.464 244.348 94.5505 244.413C93.6804 244.456 93.7021 243.586 93.5499 242.955C92.1795 237.169 90.8744 231.34 89.3953 225.576C88.4382 221.9 85.8932 219.442 82.6522 217.593C78.6281 215.287 74.2125 214.243 69.7099 213.547C62.5971 212.438 55.593 213.134 48.7412 215.309C42.1069 217.441 37.4955 221.378 36.2774 228.751C35.4291 233.885 33.8412 238.888 32.6013 243.934C32.4926 244.413 32.6013 245.174 31.8835 245.109C31.0787 245.022 31.231 244.239 31.231 243.673C31.231 237.322 31.2527 230.97 31.2745 224.619C31.666 223.379 31.4485 222.095 31.4485 220.834C31.4702 212.916 31.4485 204.999 31.4485 197.081C31.4485 196.276 31.6008 195.428 31.2745 194.645C30.7089 185.27 31.7965 176.047 33.6454 166.889C34.3415 163.387 34.9288 159.863 35.6031 156.361C35.7989 155.317 35.3203 154.491 34.9505 153.599C32.6884 148.313 30.1216 143.136 29.3168 137.372C28.7295 133.022 28.3597 128.606 28.5773 124.212C28.8818 117.687 27.1416 111.661 24.4662 105.854C23.0088 102.656 21.3557 99.5675 19.746 96.4352C18.7672 94.5211 19.224 93.4553 21.3992 93.2813C23.5308 93.1072 25.532 93.8251 27.4244 94.6951C33.9717 97.6969 38.7353 102.591 42.1721 108.856C42.5202 109.508 42.8682 110.139 43.4772 111.226C44.5213 105.963 45.5001 101.134 46.4137 96.3047C47.6536 89.7357 48.8064 83.1232 50.068 76.5541C51.8299 67.4184 53.5266 58.2826 55.506 49.1903C57.0504 42.0775 58.3772 34.8776 61.379 28.1563C61.8793 27.0469 62.249 25.3069 63.5759 25.3721C64.7723 25.4374 65.2073 27.1339 65.7076 28.2868C69.4706 36.7917 71.2325 45.8841 73.2554 54.8675C75.3871 64.3078 77.2143 73.8133 79.0414 83.2971C80.6946 91.9978 82.1519 100.72 83.7181 109.421C83.8268 110.008 84.0226 110.552 84.2619 111.487C85.1754 109.921 85.915 108.594 86.7198 107.311C90.9179 100.764 96.2689 95.6956 103.969 93.564C104.404 93.4552 104.817 93.2813 105.274 93.2378C106.492 93.129 107.754 93.1725 108.515 94.2818C109.255 95.3694 108.363 96.283 107.884 97.1531V97.2183Z" fill="#EBEBEB"/>
<path d="M55.5059 177.395C55.4189 172.436 55.9192 167.933 56.3977 163.583L56.55 162.191C57.3113 155.252 58.1379 147.769 59.095 140.156C59.5082 136.85 59.2255 133.413 58.2466 129.672L58.1161 129.215C57.9856 128.715 57.8334 128.193 57.7681 127.649C57.7681 127.496 57.7246 127.344 57.6811 127.17C57.5288 126.431 57.2896 125.169 58.5729 124.865C58.7252 124.821 58.8775 124.821 59.008 124.821C60.0303 124.821 60.1391 125.822 60.2261 126.431C60.2478 126.648 60.2696 126.866 60.3348 127.018C62.2707 132.695 62.771 138.829 61.8357 145.768C61.1396 150.967 60.5088 156.274 59.878 161.386C59.443 165.062 58.9862 168.738 58.5294 172.436C58.3119 174.067 57.8986 175.807 56.1802 177.656L55.5059 178.374V177.395Z" fill="#EBEBEB"/>
<path d="M47.6535 173.306C46.74 171.24 45.8264 169.217 44.9346 167.216C42.8464 162.539 40.867 158.123 38.9093 153.621C38.4525 152.555 37.9522 151.489 37.4737 150.423C35.5378 146.16 33.5366 141.766 32.8623 136.959C32.5795 135.001 32.4925 133 32.3838 131.042C32.3403 130.325 32.3185 129.607 32.2533 128.889V128.737C32.2098 128.28 32.1227 127.344 33.1233 127.192C33.2103 127.192 33.2973 127.192 33.3844 127.192C34.1239 127.192 34.733 127.693 34.9287 128.432C35.1027 129.106 35.2115 129.824 35.2115 130.52C35.255 135.001 36.3208 139.482 38.4525 144.202C40.0622 147.726 41.6065 151.315 43.1292 154.817C44.6518 158.341 46.2397 161.973 47.8493 165.519C49.1327 168.325 49.2849 170.652 48.3931 173.328L48.0668 174.285L47.6535 173.371V173.306Z" fill="#EBEBEB"/>
<path d="M54.2878 128.367C52.3519 126.539 50.4377 124.734 48.5235 122.907C48.219 122.602 48.0668 122.167 47.9363 121.754C46.3484 116.251 48.2625 106.419 51.7863 101.916L52.6782 100.763L52.4824 102.199C51.199 111.335 54.0703 120.014 56.8545 128.388L57.246 129.585L56.0932 130.085L54.266 128.367H54.2878Z" fill="#EBEBEB"/>
<path d="M36.2557 130.216C36.3862 121.102 36.495 112.488 32.8407 104.375L33.4498 103.896C36.7778 106.528 38.7137 110.008 40.0405 112.749C42.5855 118.035 44.2387 123.647 39.127 129.063C38.8007 129.411 38.5397 129.868 38.3004 130.325C38.1699 130.586 38.0176 130.825 37.8654 131.064C37.8001 131.173 37.7131 131.26 37.5173 131.434C37.3868 131.543 37.1911 131.717 36.9083 131.999L36.234 132.63V130.216H36.2557Z" fill="#EBEBEB"/>
<path d="M33.7542 126.017C33.2539 126.017 32.8406 125.865 32.5796 125.604C32.188 125.191 32.1445 124.56 32.1663 124.038C32.5361 115.511 29.5126 107.963 26.1628 101.068C26.1193 100.959 26.0541 100.872 25.9888 100.763C25.7495 100.372 25.4015 99.8064 25.6625 99.0015L25.793 98.61L26.1846 98.7405C28.251 99.5018 29.8389 100.459 30.7742 102.678C34.1022 110.443 35.4726 117.208 35.1245 123.929C35.1245 124.038 35.1245 124.168 35.1463 124.321C35.1898 124.712 35.2333 125.213 34.907 125.582C34.6895 125.843 34.3632 125.974 33.8847 125.996H33.7324L33.7542 126.017Z" fill="#EBEBEB"/>
<path d="M57.3331 123.821C56.2891 123.821 56.1585 122.798 56.0715 122.211C56.0498 121.993 56.0063 121.798 55.9628 121.667C53.5701 115.163 52.9393 107.898 54.0486 99.4151C54.2879 97.6314 55.4407 96.8048 56.8111 95.826L57.3114 95.478L58.0509 94.9559L57.9422 95.8478C57.8117 96.9571 57.6812 98.0229 57.5506 99.0453C57.2896 101.177 57.0286 103.2 56.8328 105.201C56.3326 110.356 56.8981 115.511 58.573 120.949C58.6165 121.08 58.6817 121.232 58.747 121.384C58.9645 121.841 59.2255 122.428 58.9863 122.972C58.834 123.299 58.5295 123.56 58.0727 123.712C57.8117 123.799 57.5942 123.842 57.3766 123.842L57.3331 123.821Z" fill="#EBEBEB"/>
<path d="M57.2896 139.525C52.0257 137.046 50.7206 132.26 49.7635 127.192L49.6113 126.409L50.3291 126.757C56.1368 129.65 58.7905 134.087 57.8552 139.242L57.7682 139.743L57.3114 139.525H57.2896Z" fill="#EBEBEB"/>
<path d="M38.5614 141.157C37.1475 138.481 35.8859 135.327 38.6266 131.999C39.3879 131.085 39.997 130.02 40.693 128.801C41.0411 128.192 41.4326 127.518 41.8459 126.822L42.4984 125.756L42.5854 126.996C42.6072 127.409 42.6507 127.844 42.6724 128.258C43.0205 133.152 43.325 137.763 39.1704 141.265L38.8006 141.592L38.5831 141.157H38.5614Z" fill="#EBEBEB"/>
<path d="M56.2452 148.378C51.9166 146.051 51.8513 142.157 52.3951 138.285L52.4821 137.676L53.0042 138.024C57.7896 141.156 58.3116 142.57 56.8107 148.139L56.6802 148.617L56.2452 148.378Z" fill="#EBEBEB"/>
<path d="M42.4331 149.422C39.1269 145.202 39.2139 142.44 42.8029 138.851L43.2379 138.416L43.4555 138.981C45.7394 144.898 45.7394 145.376 43.0639 149.379L42.7594 149.836L42.4331 149.401V149.422Z" fill="#EBEBEB"/>
<path d="M55.0707 157.166C52.0907 154.447 51.1771 151.337 52.33 147.661L52.4822 147.16L52.9173 147.443C56.7021 149.901 57.3111 151.967 55.7232 156.992L55.5275 157.579L55.0707 157.166Z" fill="#EBEBEB"/>
<path d="M45.8482 157.775C45.6959 157.471 45.5219 157.144 45.3479 156.84C43.8035 154.012 42.2157 151.076 45.6525 147.9L46.0005 147.573L46.2615 147.965C48.5454 151.597 48.6324 154.73 46.5225 157.797L46.1527 158.341L45.8482 157.753V157.775Z" fill="#EBEBEB"/>
<path d="M52.9609 179.049C52.6128 179.049 52.1995 178.962 51.7428 178.766C50.9162 178.418 49.3718 177.787 49.5023 176.003C49.5893 174.981 49.7198 173.937 49.8721 172.741C49.9374 172.153 50.0244 171.522 50.1114 170.826L50.2419 169.652L51.8298 172.393C52.4823 173.524 53.0479 174.481 53.5699 175.438C53.6352 175.547 53.7004 175.655 53.7657 175.764C54.2225 176.525 54.788 177.482 54.0702 178.505C53.8962 178.744 53.5482 179.049 52.9391 179.049H52.9609Z" fill="#EBEBEB"/>
<path d="M54.3095 164.736C51.3947 162.212 50.5899 159.493 51.7645 156.209L51.982 155.622L52.4171 156.078C54.8968 158.623 56.2889 161.059 54.9403 164.583L54.7445 165.105L54.3095 164.736Z" fill="#EBEBEB"/>
<path d="M53.4396 172.74C53.1133 172.131 52.7435 171.544 52.3737 170.979C51.0904 168.977 49.7635 166.911 51.0686 164.018L51.2861 163.561L51.6777 163.887C54.5272 166.193 55.3537 169.086 54.1574 172.697L53.8746 173.589L53.4396 172.762V172.74Z" fill="#EBEBEB"/>
<path d="M48.9802 164.301C46.3265 161.495 47.4576 158.884 48.8497 156.448L49.2412 155.752L49.5458 156.492C50.3288 158.362 50.0896 160.168 49.8503 162.082C49.7633 162.734 49.6763 163.387 49.6328 164.061L49.5675 164.953L48.9585 164.301H48.9802Z" fill="#EBEBEB"/>
<path d="M71.4501 177.656C69.7317 175.807 69.3184 174.045 69.1009 172.436C68.6223 168.76 68.1873 165.062 67.7523 161.386C67.1432 156.274 66.5124 150.967 65.7946 145.768C64.8593 138.829 65.3596 132.695 67.2955 127.018C67.339 126.866 67.3607 126.67 67.4043 126.431C67.4695 125.822 67.5783 124.821 68.6224 124.821C68.7529 124.821 68.9051 124.821 69.0574 124.865C70.3625 125.169 70.1015 126.409 69.9492 127.17C69.9057 127.344 69.884 127.497 69.8622 127.649C69.797 128.193 69.6447 128.715 69.5142 129.215L69.3837 129.672C68.3831 133.413 68.1221 136.85 68.5353 140.156C69.4924 147.769 70.319 155.252 71.0803 162.191L71.2326 163.583C71.7111 167.933 72.2114 172.436 72.1244 177.417V178.396L71.4501 177.678V177.656Z" fill="#EBEBEB"/>
<path d="M79.2591 173.284C78.3673 170.631 78.5196 168.281 79.8029 165.475C81.4126 161.93 83.0004 158.276 84.5231 154.752C86.0239 151.271 87.5901 147.661 89.1997 144.159C91.3531 139.439 92.3972 134.958 92.4407 130.477C92.4407 129.781 92.5495 129.063 92.7235 128.389C92.9193 127.649 93.5501 127.149 94.2679 127.149C94.3549 127.149 94.4419 127.149 94.5289 127.149C95.5295 127.301 95.4425 128.236 95.399 128.693V128.845C95.3337 129.563 95.312 130.281 95.2685 130.999C95.1597 132.935 95.0727 134.958 94.7899 136.915C94.1156 141.722 92.1144 146.116 90.1785 150.38C89.7 151.446 89.1997 152.511 88.7429 153.577C86.7852 158.08 84.8058 162.495 82.7177 167.15C81.8258 169.173 80.9123 171.196 79.9769 173.263L79.5637 174.176L79.2374 173.219L79.2591 173.284Z" fill="#EBEBEB"/>
<path d="M70.3841 129.563L70.7756 128.367C73.5598 119.992 76.4311 111.313 75.1477 102.177L74.952 100.742L75.8438 101.895C79.3893 106.397 81.3035 116.207 79.6938 121.732C79.6068 122.059 79.4546 122.581 79.1066 122.885C77.1924 124.712 75.2782 126.539 73.3423 128.345L71.5152 130.063L70.3623 129.563H70.3841Z" fill="#EBEBEB"/>
<path d="M90.7438 131.999C90.461 131.738 90.2653 131.564 90.1347 131.434C89.939 131.26 89.852 131.173 89.7867 131.064C89.6344 130.825 89.5039 130.564 89.3517 130.325C89.0906 129.846 88.8514 129.411 88.5033 129.041C83.3917 123.625 85.0448 117.991 87.5898 112.727C88.9166 109.987 90.8525 106.506 94.1806 103.874L94.7896 104.353C91.1136 112.466 91.2441 121.08 91.3746 130.194V132.609L90.7438 131.978V131.999Z" fill="#EBEBEB"/>
<path d="M93.7457 126.017C93.2672 126.017 92.9409 125.865 92.7234 125.604C92.3971 125.234 92.4624 124.734 92.4841 124.343C92.4841 124.212 92.5059 124.082 92.5059 123.951C92.1361 117.23 93.5282 110.465 96.8562 102.7C97.7916 100.481 99.3794 99.5238 101.446 98.7624L101.837 98.6319L101.968 99.0235C102.229 99.8283 101.903 100.372 101.642 100.764C101.576 100.872 101.511 100.959 101.468 101.068C98.1178 107.942 95.0943 115.49 95.4641 124.038C95.4859 124.538 95.4641 125.169 95.0508 125.604C94.7898 125.887 94.3983 126.017 93.8762 126.017H93.724H93.7457Z" fill="#EBEBEB"/>
<path d="M70.2973 123.821C70.0798 123.821 69.8622 123.777 69.6012 123.69C69.1444 123.538 68.8182 123.277 68.6876 122.951C68.4484 122.407 68.7094 121.841 68.9269 121.363C68.9922 121.21 69.0574 121.058 69.1009 120.928C70.7758 115.49 71.3414 110.334 70.8411 105.179C70.6453 103.178 70.3843 101.155 70.1233 99.0019C69.9928 97.9795 69.8622 96.9354 69.7317 95.8261L69.623 94.9342L70.3625 95.4563L70.8628 95.8043C72.2114 96.7614 73.386 97.6097 73.6253 99.3934C74.7346 107.877 74.1038 115.142 71.7111 121.645C71.6676 121.776 71.6459 121.972 71.6024 122.189C71.5154 122.798 71.3849 123.799 70.3408 123.799L70.2973 123.821Z" fill="#EBEBEB"/>
<path d="M69.7753 139.243C68.8182 134.087 71.4937 129.65 77.3014 126.757L78.0192 126.409L77.867 127.192C76.9099 132.282 75.6048 137.046 70.3409 139.525L69.8841 139.743L69.797 139.243H69.7753Z" fill="#EBEBEB"/>
<path d="M88.46 141.265C84.3054 137.763 84.61 133.13 84.958 128.258C84.9797 127.844 85.0232 127.431 85.045 126.996L85.132 125.756L85.7846 126.822C86.2196 127.518 86.5894 128.171 86.9374 128.802C87.6335 130.02 88.2425 131.086 89.0038 131.999C91.7446 135.327 90.4612 138.459 89.0691 141.157L88.8516 141.592L88.4818 141.265H88.46Z" fill="#EBEBEB"/>
<path d="M70.8195 148.139C69.3186 142.57 69.8407 141.157 74.6261 138.024L75.1481 137.676L75.2351 138.285C75.8007 142.157 75.7136 146.051 71.385 148.378L70.95 148.617L70.8195 148.139Z" fill="#EBEBEB"/>
<path d="M84.5666 149.401C81.9129 145.398 81.8911 144.898 84.175 139.003L84.3926 138.438L84.8276 138.873C88.4166 142.462 88.5254 145.224 85.1974 149.444L84.8711 149.879L84.5666 149.423V149.401Z" fill="#EBEBEB"/>
<path d="M71.9285 156.992C70.3406 151.967 70.9496 149.901 74.7344 147.443L75.1695 147.16L75.3217 147.661C76.4528 151.337 75.561 154.447 72.581 157.166L72.1242 157.579L71.9285 156.992Z" fill="#EBEBEB"/>
<path d="M81.1078 157.819C78.9978 154.752 79.0849 151.619 81.3688 147.987L81.6298 147.595L81.9778 147.922C85.4146 151.097 83.805 154.034 82.2824 156.862C82.1084 157.166 81.9561 157.471 81.7821 157.797L81.4775 158.384L81.1078 157.84V157.819Z" fill="#EBEBEB"/>
<path d="M74.6693 179.049C74.0385 179.049 73.7122 178.744 73.5382 178.505C72.8204 177.483 73.386 176.525 73.8428 175.764C73.908 175.655 73.9733 175.547 74.0385 175.438C74.5823 174.481 75.1479 173.502 75.8004 172.371L77.3666 169.652L77.4971 170.826C77.5841 171.522 77.6493 172.153 77.7363 172.741C77.8886 173.937 78.0191 174.981 78.1061 176.003C78.2584 177.787 76.714 178.418 75.8657 178.766C75.4089 178.962 74.9956 179.049 74.6476 179.049H74.6693Z" fill="#EBEBEB"/>
<path d="M72.7117 164.583C71.363 161.06 72.7334 158.623 75.2349 156.078L75.6699 155.622L75.8874 156.209C77.0838 159.493 76.2789 162.191 73.3425 164.736L72.9074 165.105L72.7117 164.583Z" fill="#EBEBEB"/>
<path d="M73.4729 172.675C72.2766 169.064 73.1032 166.171 75.9527 163.866L76.3442 163.54L76.5617 163.996C77.8668 166.889 76.5617 168.956 75.2566 170.957C74.8868 171.522 74.517 172.11 74.1908 172.719L73.7557 173.545L73.4729 172.654V172.675Z" fill="#EBEBEB"/>
<path d="M77.9755 164.061C77.932 163.387 77.8449 162.713 77.7579 162.082C77.5187 160.168 77.3011 158.362 78.0625 156.492L78.367 155.752L78.7585 156.448C80.1506 158.884 81.3035 161.495 78.628 164.301L78.019 164.953L77.9537 164.061H77.9755Z" fill="#EBEBEB"/>
<path d="M85.7845 201.779C85.2407 201.41 84.6969 201.04 84.1531 200.692C82.935 199.865 81.6952 199.017 80.4118 198.256C78.6499 197.211 79.1502 195.45 79.4112 194.514C79.9768 192.513 81.5429 190.99 82.935 189.664L83.0655 189.533C83.4136 189.207 83.6528 189.055 83.8921 189.055C84.4576 189.055 84.5012 189.685 84.5229 190.099C84.5229 190.164 84.5229 190.294 84.5447 190.403C84.9144 189.403 84.9144 188.163 84.5012 186.879C83.9138 185.009 82.674 183.464 81.1296 182.725C80.216 182.29 79.346 182.05 78.5194 182.05C76.4312 182.05 74.7128 183.486 73.4512 186.336L72.9727 187.401L72.7117 186.27C71.9286 182.964 73.1032 180.854 76.279 179.854C77.149 179.571 78.0191 179.44 78.8892 179.44C81.8909 179.44 84.5446 181.072 86.2195 183.921C87.3941 185.922 87.9379 187.619 87.9379 189.25C87.9379 192.1 89.3301 193.775 92.5711 194.819C92.7016 194.862 92.8538 194.906 92.9844 194.949C93.8327 195.189 95.1378 195.558 94.681 197.298C94.3547 198.517 93.5716 199.147 92.3535 199.147C92.0273 199.147 91.6792 199.104 91.2877 199.017C91.0049 198.952 90.7222 198.865 90.4394 198.778C90.0914 198.669 89.7433 198.56 89.4171 198.517C88.8733 198.43 88.4382 198.408 88.0685 198.408C87.3724 198.408 86.9156 198.538 86.6546 198.821C86.3066 199.213 86.1978 200.018 86.3501 201.41L86.4371 202.236L85.741 201.779H85.7845Z" fill="#EBEBEB"/>
<path d="M90.3956 209.893C89.9171 209.719 89.4385 209.545 88.9817 209.414C86.9806 208.74 85.2404 208.175 84.0658 206.065C82.5432 203.346 79.7155 201.867 76.9965 200.431L75.9089 199.865C72.9507 198.299 69.8837 196.668 67.4692 194.145C65.5986 192.187 65.468 190.208 67.0124 187.728L67.7302 187.967C67.5345 190.86 68.7091 192.361 70.6667 193.84C72.3634 195.102 74.2993 196.059 76.1482 196.994C76.518 197.168 76.8877 197.364 77.2575 197.56C81.9559 199.931 87.2416 203.193 90.8524 209.393L91.418 210.35L90.3956 209.958V209.893Z" fill="#EBEBEB"/>
<path d="M89.7215 217.441C89.0255 217.441 88.4599 216.919 87.9596 216.484C87.8291 216.375 87.6986 216.244 87.5681 216.136C84.7839 213.852 81.6081 212.22 77.7145 210.458L76.8662 210.089L77.7363 209.741C79.1284 209.175 80.7598 208.892 82.4782 208.892C85.8932 208.892 89.243 210.067 91.0484 211.872C92.4623 213.286 92.5058 214.918 91.1789 216.571C90.7221 217.158 90.2218 217.441 89.6998 217.441H89.7215Z" fill="#EBEBEB"/>
<path d="M70.8411 198.995C68.9487 198.995 67.2303 198.299 65.9904 197.016C64.7941 195.776 64.1633 194.101 64.2503 192.296L64.2938 190.969L64.9681 192.122C66.5125 194.732 68.6659 196.385 71.2979 198.299L72.2332 198.973L71.0803 199.017C71.0803 199.017 70.9281 199.017 70.8411 199.017V198.995Z" fill="#EBEBEB"/>
<path d="M79.9115 205.325C78.1061 205.325 76.8227 204.999 75.6699 204.259L74.691 203.628L75.8439 203.541C76.1484 203.519 76.4747 203.476 76.7792 203.432C77.3013 203.367 77.8668 203.28 78.4106 203.28C79.6939 203.28 80.7163 203.693 81.6081 204.607L82.2172 205.216L81.3471 205.26C80.8468 205.281 80.3682 205.303 79.8897 205.303L79.9115 205.325Z" fill="#EBEBEB"/>
<path d="M78.9327 208.174C78.1714 208.174 77.6059 207.696 77.5841 207.022C77.5841 206.717 77.6494 206.478 77.8234 206.304C77.9974 206.13 78.2584 206.021 78.5847 206.021C78.7587 206.021 78.9327 206.043 79.085 206.064C79.4548 206.108 79.8245 206.13 80.2161 206.13C81.2602 206.13 82.4565 206.173 83.5658 207.196L84.2401 207.826L79.0415 208.174C79.0415 208.174 78.9545 208.174 78.911 208.174H78.9327Z" fill="#EBEBEB"/>
<path d="M76.866 202.519C76.2787 202.389 75.7132 202.345 75.1911 202.323C73.9948 202.236 72.8637 202.149 71.8414 201.084L71.3411 200.561L72.0589 200.431C72.6897 200.322 73.1682 200.257 73.6032 200.257C74.9084 200.257 76.0395 200.757 77.2141 201.845L78.2581 202.802L76.866 202.519Z" fill="#EBEBEB"/>
<path d="M41.258 201.474C41.4103 200.082 41.3233 199.277 40.9535 198.886C40.6925 198.603 40.2574 198.473 39.5396 198.473C39.1698 198.473 38.7348 198.516 38.191 198.581C37.843 198.625 37.5167 198.734 37.1687 198.842C36.8859 198.929 36.6031 199.016 36.3204 199.082C35.9288 199.169 35.559 199.212 35.2545 199.212C34.0364 199.212 33.2533 198.603 32.9271 197.363C32.4703 195.623 33.7754 195.253 34.6237 195.014C34.7542 194.971 34.9065 194.927 35.037 194.884C38.2563 193.84 39.6484 192.165 39.6701 189.315C39.6701 187.684 40.2139 185.987 41.3885 183.986C43.0417 181.136 45.7171 179.505 48.7189 179.505C49.589 179.505 50.459 179.636 51.3291 179.918C54.5049 180.919 55.6577 183.007 54.8964 186.335L54.6354 187.466L54.1568 186.4C52.8952 183.551 51.1768 182.115 49.0887 182.115C48.2838 182.115 47.392 182.333 46.4784 182.79C44.9558 183.529 43.6942 185.095 43.1069 186.944C42.7154 188.228 42.6936 189.467 43.0634 190.468C43.0634 190.359 43.0634 190.25 43.0852 190.163C43.1069 189.75 43.1504 189.119 43.716 189.119C43.9552 189.119 44.2163 189.272 44.5425 189.598L44.673 189.728C46.0434 191.077 47.6095 192.578 48.1968 194.579C48.4579 195.514 48.9581 197.276 47.1963 198.32C45.9347 199.082 44.673 199.93 43.4549 200.757C42.9112 201.126 42.3674 201.496 41.8236 201.844L41.1275 202.301L41.2145 201.474H41.258Z" fill="#EBEBEB"/>
<path d="M37.9299 217.506C37.4079 217.506 36.9293 217.223 36.4508 216.635C35.1239 214.982 35.1892 213.351 36.6031 211.937C38.4085 210.132 41.7582 208.957 45.1733 208.957C46.8699 208.957 48.523 209.262 49.9152 209.805L50.7852 210.153L49.9369 210.523C46.0433 212.263 42.8676 213.895 40.0833 216.2C39.9528 216.309 39.8223 216.418 39.6918 216.548C39.1915 217.005 38.626 217.506 37.9299 217.506Z" fill="#EBEBEB"/>
<path d="M56.593 199.06L55.4402 199.017L56.3755 198.342C59.0075 196.45 61.1609 194.775 62.7053 192.165L63.3796 191.012L63.4231 192.339C63.4884 194.144 62.8793 195.819 61.683 197.059C60.4431 198.342 58.7247 199.038 56.8323 199.038C56.8323 199.038 56.68 199.038 56.593 199.038V199.06Z" fill="#EBEBEB"/>
<path d="M47.7616 205.39C47.3048 205.39 46.8263 205.39 46.3043 205.346L45.4342 205.303L46.0432 204.694C46.9351 203.802 47.9574 203.367 49.2408 203.367C49.8063 203.367 50.3501 203.432 50.8721 203.519C51.1984 203.562 51.5029 203.606 51.8075 203.628L52.9603 203.715L51.9815 204.346C50.8286 205.085 49.5453 205.411 47.7399 205.411L47.7616 205.39Z" fill="#EBEBEB"/>
<path d="M48.6101 208.261L43.4115 207.913L44.0858 207.282C45.1951 206.26 46.3915 206.238 47.4355 206.216C47.8271 206.216 48.1969 206.216 48.5449 206.151C48.7189 206.129 48.8929 206.108 49.0669 206.108C49.415 206.108 49.6542 206.194 49.8283 206.39C50.0023 206.564 50.0893 206.804 50.0675 207.108C50.0675 207.782 49.4802 208.261 48.7189 208.261C48.7189 208.261 48.6319 208.261 48.5884 208.261H48.6101Z" fill="#EBEBEB"/>
<path d="M50.4372 201.91C51.6335 200.8 52.7429 200.322 54.048 200.322C54.483 200.322 54.9616 200.365 55.5924 200.496L56.3102 200.626L55.8099 201.148C54.7875 202.214 53.6564 202.301 52.4601 202.388C51.9163 202.432 51.3725 202.475 50.7852 202.584L49.3931 202.867L50.4372 201.91Z" fill="#EBEBEB"/>
</svg>
