<svg width="362" height="65" viewBox="0 0 362 65" fill="none" xmlns="http://www.w3.org/2000/svg">
<path d="M20.7677 0L38.3899 37.2569H32.4013L29.996 31.9064H18.8533C16.7589 31.9064 14.9264 32.1028 13.3556 32.4955C11.7848 32.8555 10.5249 33.3136 9.5759 33.8699C8.65961 34.4262 8.05421 34.9825 7.75969 35.5389L6.82704 37.2569H1.03479L16.8898 4.51599L14.8773 0H20.7677ZM19.5896 11.0445L11.4903 28.5685C12.2102 27.9468 13.3556 27.4559 14.9264 27.0959C16.4971 26.7032 18.4606 26.5069 20.8168 26.5069H27.5908L19.5896 11.0445Z" fill="#1E1E1E"/>
<path d="M45.2398 0.638129H50.5903V31.9064H70.9122V37.2569H45.2398V0.638129Z" fill="#1E1E1E"/>
<path d="M91.6426 37.2569H86.4394V6.03768H73.3823V0.638129H104.552V6.03768H91.6426V37.2569Z" fill="#1E1E1E"/>
<path d="M123.564 16.7386C125.757 14.4479 127.737 11.8954 129.504 9.08107C131.271 6.26675 132.678 3.45244 133.725 0.638129H139.861C136.72 8.00115 132.171 14.9224 126.215 21.4019V37.2569H120.914V21.4019C114.958 14.9224 110.409 8.00115 107.268 0.638129H113.403C114.451 3.45244 115.858 6.26675 117.625 9.08107C119.392 11.8954 121.372 14.4479 123.564 16.7386Z" fill="#1E1E1E"/>
<path d="M150.212 0.638129L173.725 28.6176V0.638129H179.124V37.2569H173.823L152.814 12.0754V37.2569H147.561V5.79225L143.291 0.638129H150.212Z" fill="#1E1E1E"/>
<path d="M218.553 0L236.175 37.2569H230.187L227.781 31.9064H216.639C214.544 31.9064 212.712 32.1028 211.141 32.4955C209.57 32.8555 208.31 33.3136 207.361 33.8699C206.445 34.4262 205.84 34.9825 205.545 35.5389L204.612 37.2569H198.82L214.675 4.51599L212.663 0H218.553ZM217.375 11.0445L209.276 28.5685C209.996 27.9468 211.141 27.4559 212.712 27.0959C214.283 26.7032 216.246 26.5069 218.602 26.5069H225.376L217.375 11.0445Z" fill="#1E1E1E"/>
<path d="M257.049 0.638129C260.289 0.638129 263.218 1.45624 265.836 3.09247C268.487 4.7287 270.565 6.93761 272.07 9.71919C273.575 12.5008 274.328 15.5278 274.328 18.8003C274.328 21.2546 273.837 23.6926 272.855 26.1142C271.906 28.5031 270.581 30.5975 268.879 32.3973C267.243 34.1644 265.509 35.4243 263.676 36.177C261.844 36.8969 259.684 37.2569 257.197 37.2569H243.649V6.03768H240.753L238.396 0.638129H257.049ZM257.197 31.9064C259.487 31.9064 261.516 31.3338 263.284 30.1884C265.083 29.0103 266.474 27.4559 267.456 25.5252C268.438 23.5944 268.929 21.4837 268.929 19.193C268.929 16.8041 268.454 14.6115 267.505 12.6153C266.589 10.6191 265.231 9.03198 263.431 7.85389C261.631 6.64309 259.52 6.03768 257.099 6.03768H248.901V31.9064H257.197Z" fill="#1E1E1E"/>
<path d="M296.066 0L313.688 37.2569H307.7L305.295 31.9064H294.152C292.057 31.9064 290.225 32.1028 288.654 32.4955C287.083 32.8555 285.823 33.3136 284.874 33.8699C283.958 34.4262 283.353 34.9825 283.058 35.5389L282.126 37.2569H276.333L292.188 4.51599L290.176 0H296.066ZM294.888 11.0445L286.789 28.5685C287.509 27.9468 288.654 27.4559 290.225 27.0959C291.796 26.7032 293.759 26.5069 296.115 26.5069H302.889L294.888 11.0445Z" fill="#1E1E1E"/>
<path d="M326.871 12.0754V37.2569H321.618V5.79225L317.348 0.638129H324.269L339.24 18.6039L354.408 0.638129H361.33L357.059 5.79225V37.2569H351.807V12.0754L339.29 27.0468L326.871 12.0754Z" fill="#1E1E1E"/>
<path d="M9.81397 49.8369V50.6086H5.66445V61.5866H4.83455V50.6086H0.670471V49.8369H9.81397Z" fill="#1E1E1E"/>
<path d="M20.2679 49.8369L15.8563 57.175H18.6226V57.8011H15.6233V61.5866H14.7789V57.8011H11.7504V57.175H14.5459L10.1343 49.8369H11.0661L15.2302 56.7528L19.3943 49.8369H20.2679Z" fill="#1E1E1E"/>
<path d="M26.3966 49.8369C29.294 49.8369 31.0412 51.3074 31.0412 53.7972C31.0412 56.2869 29.294 57.7428 26.3966 57.7428H23.1062V61.5866H22.2617V49.8369H26.3966ZM26.3966 56.9712C28.8718 56.9712 30.1822 55.8064 30.1822 53.7972C30.1822 51.7879 28.8572 50.6086 26.3966 50.6086H23.1062V56.9712H26.3966Z" fill="#1E1E1E"/>
<path d="M41.3942 50.6086H35.1044V55.7627H40.1712V56.447H35.1044V61.5866H34.2599V56.447H32.4837V55.7627H34.2599V49.8369H41.3942V50.6086Z" fill="#1E1E1E"/>
<path d="M48.3973 54.132C51.12 54.132 52.5614 55.3696 52.5614 57.7865C52.5614 60.2034 51.0181 61.5866 48.1789 61.5866H43.7673V49.8369H44.6118V54.132H48.3973ZM54.6871 49.8369H55.5316V61.5866H54.6871V49.8369ZM48.1935 60.8732C50.4939 60.8732 51.7024 59.8394 51.7024 57.8156C51.7024 55.7918 50.523 54.86 48.1935 54.86H44.5972V60.8732H48.1935Z" fill="#1E1E1E"/>
<path d="M68.2263 49.8369H69.0708V61.5866H68.2263V55.9957H60.5242V61.5866H59.6798V49.8369H60.5242V55.2386H68.2263V49.8369Z" fill="#1E1E1E"/>
<path d="M85.7142 49.8369L81.0696 57.539V61.5866H80.2252V57.539L75.5806 49.8369H76.5124L80.6765 56.7528L84.8406 49.8369H85.7142Z" fill="#1E1E1E"/>
<path d="M92.3818 48.9484C90.8676 48.9484 89.8484 48.1913 89.8047 46.8955H90.4745C90.5036 47.8419 91.2607 48.4097 92.3673 48.4097C93.4738 48.4097 94.2163 47.8419 94.2455 46.8955H94.9152C94.8861 48.1913 93.8669 48.9484 92.3673 48.9484M87.6936 61.5863V49.8366H88.538V60.1448L96.4003 49.8366H97.1428V61.5863H96.2984V51.2925L88.4361 61.5863H87.6936Z" fill="#1E1E1E"/>
<path d="M113.537 61.5866L109.14 56.0102H106.373V61.5866H105.529V49.8369H106.373V55.2386H109.154L113.289 49.8369H114.236L109.824 55.5589L114.527 61.5866H113.537Z" fill="#1E1E1E"/>
<path d="M117.425 60.8149H124.544V61.5866H116.58V49.8369H124.297V50.6086H117.425V55.2386H123.569V55.9957H117.425V60.8149Z" fill="#1E1E1E"/>
<path d="M140.372 49.8369H141.202V61.5866H127.356V49.8369H128.186V60.8149H133.864V49.8369H134.694V60.8149H140.372V49.8369Z" fill="#1E1E1E"/>
<path d="M146.194 60.8149H153.314V61.5866H145.349V49.8369H153.066V50.6086H146.194V55.2386H152.338V55.9957H146.194V60.8149Z" fill="#1E1E1E"/>
<path d="M164.671 49.8369H165.501V61.5866H164.671V55.9957H156.955V61.5866H156.11V49.8369H156.955V55.2386H164.671V49.8369Z" fill="#1E1E1E"/>
<path d="M170.51 49.8369H169.665V61.5866H170.51V49.8369Z" fill="#1E1E1E"/>
<path d="M201.959 61.5866L198.159 56.0102H195.625V61.5866H194.795V56.0102H192.262L188.462 61.5866H187.457L191.563 55.5443L187.763 49.8369H188.724L192.247 55.2386H194.795V49.8369H195.625V55.2386H198.159L201.697 49.8369H202.643L198.857 55.5443L202.963 61.5866H201.959Z" fill="#1E1E1E"/>
<path d="M205.089 61.5866V49.8369H205.934V60.1452L213.781 49.8369H214.524V61.5866H213.694V51.2929L205.832 61.5866H205.089Z" fill="#1E1E1E"/>
<path d="M219.634 49.8369H227.19V61.5866H226.346V50.6086H220.376L220.231 54.9183C220.056 59.6502 219.314 61.6885 217.363 61.6885C217.101 61.6885 216.853 61.674 216.533 61.5866L216.635 60.8004C216.853 60.8441 216.999 60.8732 217.173 60.8732C218.673 60.8732 219.285 59.1843 219.445 54.9474L219.605 49.8369H219.634Z" fill="#1E1E1E"/>
<path d="M236.29 61.6735C232.839 61.6735 230.291 59.1256 230.291 55.7186C230.291 52.3116 232.839 49.7637 236.29 49.7637C239.741 49.7637 242.289 52.2971 242.289 55.7186C242.289 59.1401 239.726 61.6735 236.29 61.6735ZM236.29 60.8873C239.216 60.8873 241.429 58.6888 241.429 55.7186C241.429 52.7484 239.216 50.5499 236.29 50.5499C233.363 50.5499 231.136 52.7484 231.136 55.7186C231.136 58.6888 233.349 60.8873 236.29 60.8873Z" fill="#1E1E1E"/>
<path d="M250.064 48.9484C248.55 48.9484 247.531 48.1913 247.502 46.8955H248.171C248.2 47.8419 248.958 48.4097 250.064 48.4097C251.171 48.4097 251.913 47.8419 251.942 46.8955H252.612C252.583 48.1913 251.564 48.9484 250.064 48.9484ZM245.39 61.5863V49.8366H246.235V60.1448L254.097 49.8366H254.84V61.5863H253.995V51.2925L246.133 61.5863H245.39Z" fill="#1E1E1E"/>
<path d="M271.219 61.5866L266.822 56.0102H264.056V61.5866H263.211V49.8369H264.056V55.2386H266.837L270.972 49.8369H271.918L267.492 55.5589L272.209 61.5866H271.219Z" fill="#1E1E1E"/>
<path d="M279.198 61.6735C275.762 61.6735 273.199 59.1256 273.199 55.7186C273.199 52.3116 275.747 49.7637 279.198 49.7637C282.649 49.7637 285.197 52.2971 285.197 55.7186C285.197 59.1401 282.62 61.6735 279.198 61.6735ZM279.198 60.8873C282.125 60.8873 284.338 58.6888 284.338 55.7186C284.338 52.7484 282.125 50.5499 279.198 50.5499C276.272 50.5499 274.044 52.7484 274.044 55.7186C274.044 58.6888 276.257 60.8873 279.198 60.8873Z" fill="#1E1E1E"/>
<path d="M300.032 61.5866H299.202L299.188 51.5258L294.354 60.0287H293.946L289.112 51.555V61.5866H288.297V49.8369H289.01L294.165 58.9222L299.319 49.8369H300.003L300.032 61.5866Z" fill="#1E1E1E"/>
<path d="M304.182 49.8369H313.66V61.5866H312.83V50.6086H305.012V61.5866H304.182V49.8369Z" fill="#1E1E1E"/>
<path d="M318.757 49.8369H326.314V61.5866H325.469V50.6086H319.5L319.354 54.9183C319.179 59.6502 318.437 61.6885 316.486 61.6885C316.224 61.6885 315.976 61.674 315.656 61.5866L315.758 60.8004C315.976 60.8441 316.122 60.8732 316.297 60.8732C317.796 60.8732 318.408 59.1843 318.568 54.9474L318.728 49.8369H318.757Z" fill="#1E1E1E"/>
<path d="M331.321 60.8149H338.44V61.5866H330.476V49.8369H338.193V50.6086H331.321V55.2386H337.465V55.9957H331.321V60.8149Z" fill="#1E1E1E"/>
<path d="M349.245 61.5866L344.848 56.0102H342.081V61.5866H341.237V49.8369H342.081V55.2386H344.862L348.997 49.8369H349.944L345.532 55.5589L350.235 61.5866H349.245Z" fill="#1E1E1E"/>
<path d="M357.224 61.6735C353.802 61.6735 351.24 59.1401 351.24 55.7186C351.24 52.2971 353.788 49.7637 357.224 49.7637C358.854 49.7637 360.325 50.3024 361.329 51.3944L360.805 51.9476C359.815 50.9576 358.607 50.5499 357.267 50.5499C354.326 50.5499 352.099 52.763 352.099 55.7186C352.099 58.6742 354.326 60.8873 357.267 60.8873C358.621 60.8873 359.815 60.4651 360.805 59.475L361.329 60.0283C360.325 61.1203 358.854 61.6735 357.224 61.6735Z" fill="#1E1E1E"/>
<path d="M179.756 47.0269H178.911V64.6732H179.756V47.0269Z" fill="#1E1E1E"/>
</svg>
