<svg width="60" height="55" viewBox="0 0 60 55" fill="none" xmlns="http://www.w3.org/2000/svg">
<path d="M48.1019 6.61865H11.7475C11.678 6.61853 11.6092 6.6321 11.545 6.65858C11.4807 6.68506 11.4223 6.72393 11.3731 6.77298C11.3239 6.82204 11.2848 6.8803 11.2581 6.94446C11.2314 7.00861 11.2176 7.0774 11.2174 7.14689V47.3937C11.2174 47.4632 11.2312 47.5321 11.2578 47.5964C11.2845 47.6606 11.3235 47.719 11.3728 47.7682C11.422 47.8173 11.4804 47.8563 11.5447 47.8828C11.6091 47.9094 11.678 47.9229 11.7475 47.9228H48.1019C48.1715 47.9229 48.2404 47.9094 48.3047 47.8828C48.369 47.8563 48.4275 47.8173 48.4767 47.7682C48.5259 47.719 48.565 47.6606 48.5916 47.5964C48.6183 47.5321 48.632 47.4632 48.632 47.3937V7.14689C48.6319 7.0774 48.6181 7.00861 48.5914 6.94446C48.5647 6.8803 48.5256 6.82204 48.4764 6.77298C48.4271 6.72393 48.3687 6.68506 48.3045 6.65858C48.2402 6.6321 48.1714 6.61853 48.1019 6.61865ZM35.3534 7.67793V12.3361H24.4951V7.67793H35.3534ZM23.4359 7.67793V12.869C23.4359 13.0089 23.4912 13.143 23.5899 13.2422C23.6885 13.3414 23.8224 13.3974 23.9622 13.3982H35.8872C35.9567 13.3982 36.0255 13.3845 36.0897 13.3579C36.1539 13.3313 36.2123 13.2923 36.2614 13.2432C36.3105 13.1941 36.3495 13.1357 36.3761 13.0715C36.4027 13.0073 36.4164 12.9385 36.4164 12.869V7.67793H47.5718V26.7402H35.8099C35.5369 23.717 33.015 21.332 29.9247 21.332C26.8345 21.332 24.3116 23.717 24.0396 26.7402H12.2776V7.67793H23.4359ZM25.0988 26.7402C25.2241 25.5477 25.7865 24.4438 26.6776 23.6414C27.5686 22.8391 28.7252 22.3951 29.9243 22.3951C31.1233 22.3951 32.2799 22.8391 33.171 23.6414C34.062 24.4438 34.6244 25.5477 34.7497 26.7402H25.0988ZM34.7497 27.8004C34.6244 28.9929 34.062 30.0967 33.171 30.8991C32.2799 31.7015 31.1233 32.1454 29.9243 32.1454C28.7252 32.1454 27.5686 31.7015 26.6776 30.8991C25.7865 30.0967 25.2241 28.9929 25.0988 27.8004H34.7497ZM24.4951 46.8626V42.2044H35.3534V46.8626H24.4951ZM36.4127 46.8626V41.6715C36.4128 41.602 36.3992 41.5331 36.3726 41.4687C36.3461 41.4044 36.3071 41.346 36.258 41.2968C36.2088 41.2475 36.1505 41.2085 36.0862 41.1818C36.0219 41.1552 35.9531 41.1414 35.8835 41.1414H23.9622C23.8217 41.1414 23.6868 41.1973 23.5874 41.2967C23.488 41.3961 23.4321 41.5309 23.4321 41.6715V46.8626H12.2776V27.8004H24.0396C24.3116 30.8235 26.8345 33.2085 29.9247 33.2085C33.015 33.2085 35.5369 30.8235 35.8099 27.8004H47.5718V46.8626H36.4127Z" fill="#655D4D"/>
</svg>
