<svg width="60" height="55" viewBox="0 0 60 55" fill="none" xmlns="http://www.w3.org/2000/svg">
<path d="M29.8935 48.3958C29.5857 48.3958 29.3362 48.1464 29.3362 47.8386V30.0023C29.3362 29.8621 29.2177 29.7436 29.0774 29.7436H10.3085C10.1683 29.7436 10.0497 29.8621 10.0497 30.0023V47.8386C10.0497 48.1464 9.8002 48.3958 9.49249 48.3958C9.18478 48.3958 8.93524 48.1464 8.93524 47.8386V30.0023C8.93524 29.2451 9.55122 28.6291 10.3085 28.6291H29.0774C29.8346 28.6291 30.4507 29.2451 30.4507 30.0023V47.8386C30.4508 48.1464 30.2012 48.3958 29.8935 48.3958Z" fill="#655D4D"/>
<path d="M27.5036 29.7436C27.1959 29.7436 26.9464 29.4942 26.9464 29.1863V17.6195H12.4396V29.1863C12.4396 29.4942 12.19 29.7436 11.8823 29.7436C11.5746 29.7436 11.3251 29.4942 11.3251 29.1863V17.0623C11.3251 16.7546 11.5746 16.505 11.8823 16.505H27.5036C27.8114 16.505 28.0609 16.7546 28.0609 17.0623V29.1863C28.0609 29.4941 27.8115 29.7436 27.5036 29.7436Z" fill="#655D4D"/>
<path d="M11.8819 17.6196C11.7731 17.6196 11.6632 17.5879 11.5667 17.5216C11.3131 17.3473 11.2487 17.0003 11.423 16.7468L18.0533 7.09847C18.4693 6.49296 19.067 6.14568 19.6929 6.14568C20.3188 6.14568 20.9165 6.49296 21.3326 7.09847L27.9628 16.7468C28.1371 17.0004 28.0728 17.3473 27.8192 17.5216C27.5656 17.6959 27.2186 17.6317 27.0444 17.3779L20.4141 7.72961C20.206 7.42691 19.9499 7.26018 19.6929 7.26018C19.4359 7.26018 19.1798 7.42691 18.9717 7.72961L12.3415 17.3779C12.2336 17.5351 12.0592 17.6196 11.8819 17.6196Z" fill="#655D4D"/>
<path d="M24.2978 29.7436C23.9901 29.7436 23.7405 29.4942 23.7405 29.1863V23.8229C23.7405 21.5912 21.9248 19.7754 19.693 19.7754C17.4613 19.7754 15.6455 21.5912 15.6455 23.8229V29.1863C15.6455 29.4942 15.396 29.7436 15.0883 29.7436C14.7806 29.7436 14.531 29.4942 14.531 29.1863V23.8229C14.531 20.9766 16.8467 18.6609 19.693 18.6609C22.5395 18.6609 24.855 20.9766 24.855 23.8229V29.1863C24.855 29.4941 24.6055 29.7436 24.2978 29.7436Z" fill="#655D4D"/>
<path d="M24.2978 48.3958C23.9901 48.3958 23.7405 48.1464 23.7405 47.8386V29.7436H15.6455V47.8386C15.6455 48.1464 15.396 48.3958 15.0883 48.3958C14.7806 48.3958 14.531 48.1464 14.531 47.8386V29.1863C14.531 28.8785 14.7806 28.6291 15.0883 28.6291H24.2978C24.6055 28.6291 24.855 28.8785 24.855 29.1863V47.8386C24.855 48.1464 24.6055 48.3958 24.2978 48.3958Z" fill="#655D4D"/>
<path d="M39.7881 48.3466C39.5642 48.3466 39.3531 48.2108 39.2678 47.9893L32.2602 29.7674H27.5036C27.1959 29.7674 26.9464 29.518 26.9464 29.2102V25.4797C26.9464 25.172 27.1959 24.9225 27.5036 24.9225H34.9267C35.1573 24.9225 35.3641 25.0645 35.4469 25.2797L42.4546 43.5016H49.0678C49.3756 43.5016 49.6251 43.751 49.6251 44.0588V47.7894C49.6251 48.0972 49.3756 48.3466 49.0678 48.3466C48.76 48.3466 48.5106 48.0972 48.5106 47.7894V44.6161H42.072C41.8414 44.6161 41.6347 44.4741 41.5519 44.2589L34.5441 26.037H28.061V28.6529H32.643C32.8736 28.6529 33.0804 28.7949 33.1632 29.0101L40.3081 47.5892C40.4185 47.8764 40.2752 48.199 39.988 48.3094C39.9223 48.3346 39.8546 48.3466 39.7881 48.3466Z" fill="#655D4D"/>
<path d="M53.9894 48.3958H5.84318C5.53547 48.3958 5.28593 48.1464 5.28593 47.8386C5.28593 47.5307 5.53547 47.2813 5.84318 47.2813H53.9894C54.2972 47.2813 54.5467 47.5307 54.5467 47.8386C54.5467 48.1464 54.2971 48.3958 53.9894 48.3958Z" fill="#655D4D"/>
<path d="M24.2978 33.8236H15.0883C14.7806 33.8236 14.531 33.5742 14.531 33.2664C14.531 32.9586 14.7806 32.7092 15.0883 32.7092H24.2978C24.6055 32.7092 24.855 32.9586 24.855 33.2664C24.855 33.5742 24.6055 33.8236 24.2978 33.8236Z" fill="#655D4D"/>
<path d="M24.2978 39.0696H15.0883C14.7806 39.0696 14.531 38.8202 14.531 38.5123C14.531 38.2045 14.7806 37.9551 15.0883 37.9551H24.2978C24.6055 37.9551 24.855 38.2045 24.855 38.5123C24.855 38.8202 24.6055 39.0696 24.2978 39.0696Z" fill="#655D4D"/>
<path d="M24.2978 44.3156H15.0883C14.7806 44.3156 14.531 44.0662 14.531 43.7584C14.531 43.4506 14.7806 43.2011 15.0883 43.2011H24.2978C24.6055 43.2011 24.855 43.4506 24.855 43.7584C24.855 44.0662 24.6055 44.3156 24.2978 44.3156Z" fill="#655D4D"/>
<path d="M19.693 15.7533C18.2287 15.7533 17.0373 14.562 17.0373 13.0977C17.0373 11.6334 18.2286 10.4421 19.693 10.4421C21.1574 10.4421 22.3487 11.6334 22.3487 13.0977C22.3487 14.562 21.1574 15.7533 19.693 15.7533ZM19.693 11.5566C18.8432 11.5566 18.1518 12.2479 18.1518 13.0977C18.1518 13.9475 18.8432 14.6388 19.693 14.6388C20.5428 14.6388 21.2342 13.9475 21.2342 13.0977C21.2342 12.2479 20.5428 11.5566 19.693 11.5566Z" fill="#655D4D"/>
<path d="M45.4701 21.4949H34.2951C32.5054 21.4949 31.0494 20.0389 31.0494 18.2492C31.0494 16.5248 32.4014 15.1101 34.101 15.0094C34.3636 13.4816 35.698 12.3153 37.2996 12.3153C37.4943 12.3153 37.6861 12.3321 37.8743 12.3658C38.1152 10.0599 40.0705 8.25643 42.4391 8.25643C44.9699 8.25643 47.029 10.3153 47.029 12.8461C47.029 13.6607 46.8144 14.4507 46.4134 15.1435C47.7445 15.5485 48.7157 16.7876 48.7157 18.2493C48.7156 20.0389 47.2598 21.4949 45.4701 21.4949ZM34.2951 16.1181C33.1199 16.1181 32.1639 17.0741 32.1639 18.2492C32.1639 19.4244 33.1199 20.3804 34.2951 20.3804H45.4702C46.6452 20.3804 47.6012 19.4244 47.6012 18.2492C47.6012 17.0741 46.6452 16.1181 45.4702 16.1181L45.4314 16.1185C45.2069 16.1222 45.0049 15.9944 44.913 15.7915C44.821 15.5887 44.8587 15.3506 45.0086 15.186C45.5927 14.5452 45.9145 13.7141 45.9145 12.846C45.9145 10.9298 44.3555 9.37081 42.4391 9.37081C40.5227 9.37081 38.9638 10.9298 38.9638 12.846C38.9638 12.9204 38.9664 12.9983 38.9717 13.0776C38.9846 13.2734 38.8937 13.4616 38.7322 13.5731C38.5708 13.6846 38.3626 13.703 38.1841 13.6213C37.9059 13.4941 37.6083 13.4297 37.2995 13.4297C36.1245 13.4297 35.1685 14.3857 35.1685 15.5608C35.1713 15.7215 35.1046 15.8803 34.9853 15.9881C34.8661 16.096 34.706 16.1513 34.5464 16.1329C34.4629 16.1231 34.3782 16.1181 34.2951 16.1181Z" fill="#655D4D"/>
</svg>
