<svg width="61" height="55" viewBox="0 0 61 55" fill="none" xmlns="http://www.w3.org/2000/svg">
<path fill-rule="evenodd" clip-rule="evenodd" d="M17.6304 32.351C17.2823 32.351 16.9474 32.1586 16.7814 31.826C16.5477 31.3576 16.7379 30.7883 17.2065 30.5546L54.7615 11.817C55.1078 11.6442 55.2492 11.2217 55.0764 10.8756L53.9079 8.53353C53.8241 8.36567 53.6803 8.24059 53.5023 8.18117C53.3244 8.12176 53.134 8.13509 52.9662 8.2187L15.9091 26.7083C15.4406 26.942 14.8714 26.7519 14.6376 26.2834C14.4039 25.815 14.594 25.2457 15.0625 25.0118L52.1199 6.52207C52.741 6.21233 53.4454 6.16296 54.1034 6.38284C54.7617 6.60288 55.2948 7.066 55.6045 7.68711L56.7728 10.0289C57.4124 11.3101 56.89 12.8734 55.6081 13.5133L18.0531 32.2509C17.9171 32.3187 17.7726 32.351 17.6304 32.351Z" fill="#655D4D"/>
<path fill-rule="evenodd" clip-rule="evenodd" d="M50.0275 16.2033C49.8459 16.2033 49.6626 16.1513 49.5005 16.0427L43.8377 12.2474C43.4029 11.9559 43.2865 11.3671 43.578 10.9322C43.8695 10.4973 44.4583 10.3811 44.8933 10.6725L50.5561 14.4679C50.9909 14.7593 51.1073 15.3482 50.8158 15.7832C50.6329 16.0559 50.3331 16.2033 50.0275 16.2033Z" fill="#655D4D"/>
<path fill-rule="evenodd" clip-rule="evenodd" d="M41.822 20.2974C41.6404 20.2974 41.4571 20.2453 41.295 20.1367L35.6322 16.3414C35.1974 16.0499 35.081 15.4611 35.3725 15.0263C35.664 14.5915 36.2527 14.4751 36.6878 14.7666L42.3506 18.5619C42.7854 18.8534 42.9018 19.4422 42.6103 19.8772C42.4274 20.1499 42.1274 20.2974 41.822 20.2974Z" fill="#655D4D"/>
<path fill-rule="evenodd" clip-rule="evenodd" d="M33.6163 24.3915C33.4348 24.3915 33.2514 24.3395 33.0893 24.2309L27.4266 20.4356C26.9916 20.1441 26.8754 19.5553 27.1669 19.1205C27.4583 18.6855 28.0472 18.5693 28.482 18.8608L34.1448 22.6561C34.5796 22.9475 34.6959 23.5364 34.4045 23.9714C34.2218 24.2441 33.9219 24.3915 33.6163 24.3915Z" fill="#655D4D"/>
<path fill-rule="evenodd" clip-rule="evenodd" d="M25.2166 28.5823C25.0351 28.5823 24.8517 28.5303 24.6896 28.4217L19.0269 24.6264C18.5919 24.3349 18.4757 23.7461 18.7672 23.3113C19.0586 22.8763 19.6475 22.7601 20.0823 23.0516L25.7451 26.8469C26.18 27.1383 26.2962 27.7272 26.0048 28.162C25.8221 28.4349 25.5222 28.5823 25.2166 28.5823Z" fill="#655D4D"/>
<path fill-rule="evenodd" clip-rule="evenodd" d="M17.6296 44.1979C17.1061 44.1979 16.6816 43.7735 16.6816 43.25V30.3275C16.6816 27.6935 14.5387 25.5505 11.9046 25.5505C10.6285 25.5505 9.42904 26.0474 8.52716 26.9496C7.64272 27.8337 7.14603 29.0081 7.12809 30.2572L7.12776 43.25C7.12776 43.7735 6.70331 44.1979 6.17979 44.1979C5.65627 44.1979 5.23183 43.7735 5.23183 43.25L5.23216 30.251C5.23216 30.2469 5.23216 30.2428 5.23232 30.2386C5.2552 28.4902 5.94922 26.846 7.18651 25.6092C8.44635 24.3489 10.1221 23.6547 11.9046 23.6547C15.5841 23.6547 18.5776 26.6482 18.5776 30.3277V43.2501C18.5776 43.7735 18.1531 44.1979 17.6296 44.1979Z" fill="#655D4D"/>
<path fill-rule="evenodd" clip-rule="evenodd" d="M19.0499 48.2939C18.5264 48.2939 18.1019 47.8695 18.1019 47.346V44.1979H5.70746V47.346C5.70746 47.8695 5.28301 48.2939 4.75949 48.2939C4.23597 48.2939 3.81153 47.8695 3.81153 47.346V43.25C3.81153 42.7264 4.23597 42.302 4.75949 42.302H19.0499C19.5734 42.302 19.9979 42.7264 19.9979 43.25V47.346C19.9979 47.8695 19.5734 48.2939 19.0499 48.2939Z" fill="#655D4D"/>
<path fill-rule="evenodd" clip-rule="evenodd" d="M11.9048 33.5861C10.3643 33.5861 9.11125 32.3329 9.11125 30.7926C9.11125 29.2522 10.3645 27.9991 11.9048 27.9991C13.4451 27.9991 14.6983 29.2523 14.6983 30.7926C14.6981 32.3329 13.4451 33.5861 11.9048 33.5861ZM11.9048 29.8948C11.4097 29.8948 11.0072 30.2976 11.0072 30.7924C11.0072 31.2875 11.4099 31.6901 11.9048 31.6901C12.3998 31.6901 12.8024 31.2873 12.8024 30.7924C12.8024 30.2976 12.3997 29.8948 11.9048 29.8948Z" fill="#655D4D"/>
<path fill-rule="evenodd" clip-rule="evenodd" d="M55.2227 48.2939C54.6992 48.2939 54.2747 47.8695 54.2747 47.346V30.4801H51.038V47.346C51.038 47.8695 50.6135 48.2939 50.09 48.2939C49.5665 48.2939 49.142 47.8695 49.142 47.346V29.5321C49.142 29.0086 49.5665 28.5842 50.09 28.5842H55.2227C55.7462 28.5842 56.1706 29.0086 56.1706 29.5321V47.346C56.1706 47.8695 55.7464 48.2939 55.2227 48.2939Z" fill="#655D4D"/>
<path fill-rule="evenodd" clip-rule="evenodd" d="M59.8159 48.2939H1.04202C0.5185 48.2939 0.0940552 47.8695 0.0940552 47.346C0.0940552 46.8224 0.5185 46.398 1.04202 46.398H59.8159C60.3394 46.398 60.7638 46.8224 60.7638 47.346C60.7638 47.8695 60.3394 48.2939 59.8159 48.2939Z" fill="#655D4D"/>
</svg>
