<svg width="59" height="55" viewBox="0 0 59 55" fill="none" xmlns="http://www.w3.org/2000/svg">
<mask id="path-1-inside-1_48_174" fill="white">
<path d="M50.1321 20.9939H50.1209L32.9499 13.4316V11.0739H33.6287C33.9509 11.0756 34.2641 10.968 34.5173 10.7688C34.7704 10.5695 34.9486 10.2903 35.0226 9.97675C35.0967 9.6632 35.0622 9.33381 34.9249 9.04235C34.7877 8.75089 34.5556 8.51457 34.2667 8.37196L30.0669 6.2939C29.8684 6.19627 29.6502 6.14551 29.429 6.14551C29.2077 6.14551 28.9895 6.19627 28.791 6.2939L24.5912 8.37196C24.3023 8.51457 24.0703 8.75089 23.933 9.04235C23.7957 9.33381 23.7613 9.6632 23.8353 9.97675C23.9093 10.2903 24.0875 10.5695 24.3406 10.7688C24.5938 10.968 24.907 11.0756 25.2292 11.0739H25.908V13.4316L8.73564 20.9875H8.72437C8.59845 21.0428 8.49147 21.1337 8.41664 21.2491C8.34181 21.3645 8.30239 21.4993 8.30327 21.6368V23.7493C8.30327 24.1229 8.45165 24.4811 8.71577 24.7452C8.97989 25.0093 9.33812 25.1577 9.71165 25.1577H10.4158V43.4666H9.71165C9.33812 43.4666 8.97989 43.615 8.71577 43.8792C8.45165 44.1433 8.30327 44.5015 8.30327 44.875V46.9876C8.30327 47.3611 8.45165 47.7193 8.71577 47.9835C8.97989 48.2476 9.33812 48.396 9.71165 48.396H49.1463C49.5198 48.396 49.878 48.2476 50.1421 47.9835C50.4063 47.7193 50.5546 47.3611 50.5546 46.9876V44.875C50.5546 44.5015 50.4063 44.1433 50.1421 43.8792C49.878 43.615 49.5198 43.4666 49.1463 43.4666H48.4421V25.1577H49.1463C49.5198 25.1577 49.878 25.0093 50.1421 24.7452C50.4063 24.4811 50.5546 24.1229 50.5546 23.7493V21.6368C50.5542 21.5002 50.514 21.3667 50.4389 21.2525C50.3639 21.1384 50.2573 21.0485 50.1321 20.9939ZM32.0978 14.5949L46.502 20.9326H12.3559L26.7601 14.5949H32.0978ZM25.2158 9.63457L29.4409 7.55651L33.64 9.63457L33.6287 9.66556L25.2158 9.63457ZM31.5415 11.0739V13.1865H27.3164V11.0739H31.5415ZM11.8242 25.1577H13.2326V43.4666H11.8242V25.1577ZM42.1044 43.4666V35.0164H44.2169V43.4666H42.1044ZM38.5834 35.0164H40.696V43.4666H38.5834V35.0164ZM44.2169 33.608H38.5834V25.1577H44.2169V33.608ZM37.175 43.4666H35.7667V25.1577H37.175V43.4666ZM34.3583 43.4666H24.4996V25.1577H34.3583V43.4666ZM23.0912 43.4666H21.6829V25.1577H23.0912V43.4666ZM14.641 35.0164H16.7535V43.4666H14.641V35.0164ZM18.1619 35.0164H20.2745V43.4666H18.1619V35.0164ZM20.2745 33.608H14.641V25.1577H20.2745V33.608ZM49.1463 46.9876H9.71165V44.875H49.1463V46.9876ZM47.0337 43.4666H45.6253V25.1577H47.0337V43.4666ZM9.71165 23.7493V22.341H49.1463V23.7493H9.71165Z"/>
</mask>
<path d="M50.1321 20.9939H50.1209L32.9499 13.4316V11.0739H33.6287C33.9509 11.0756 34.2641 10.968 34.5173 10.7688C34.7704 10.5695 34.9486 10.2903 35.0226 9.97675C35.0967 9.6632 35.0622 9.33381 34.9249 9.04235C34.7877 8.75089 34.5556 8.51457 34.2667 8.37196L30.0669 6.2939C29.8684 6.19627 29.6502 6.14551 29.429 6.14551C29.2077 6.14551 28.9895 6.19627 28.791 6.2939L24.5912 8.37196C24.3023 8.51457 24.0703 8.75089 23.933 9.04235C23.7957 9.33381 23.7613 9.6632 23.8353 9.97675C23.9093 10.2903 24.0875 10.5695 24.3406 10.7688C24.5938 10.968 24.907 11.0756 25.2292 11.0739H25.908V13.4316L8.73564 20.9875H8.72437C8.59845 21.0428 8.49147 21.1337 8.41664 21.2491C8.34181 21.3645 8.30239 21.4993 8.30327 21.6368V23.7493C8.30327 24.1229 8.45165 24.4811 8.71577 24.7452C8.97989 25.0093 9.33812 25.1577 9.71165 25.1577H10.4158V43.4666H9.71165C9.33812 43.4666 8.97989 43.615 8.71577 43.8792C8.45165 44.1433 8.30327 44.5015 8.30327 44.875V46.9876C8.30327 47.3611 8.45165 47.7193 8.71577 47.9835C8.97989 48.2476 9.33812 48.396 9.71165 48.396H49.1463C49.5198 48.396 49.878 48.2476 50.1421 47.9835C50.4063 47.7193 50.5546 47.3611 50.5546 46.9876V44.875C50.5546 44.5015 50.4063 44.1433 50.1421 43.8792C49.878 43.615 49.5198 43.4666 49.1463 43.4666H48.4421V25.1577H49.1463C49.5198 25.1577 49.878 25.0093 50.1421 24.7452C50.4063 24.4811 50.5546 24.1229 50.5546 23.7493V21.6368C50.5542 21.5002 50.514 21.3667 50.4389 21.2525C50.3639 21.1384 50.2573 21.0485 50.1321 20.9939ZM32.0978 14.5949L46.502 20.9326H12.3559L26.7601 14.5949H32.0978ZM25.2158 9.63457L29.4409 7.55651L33.64 9.63457L33.6287 9.66556L25.2158 9.63457ZM31.5415 11.0739V13.1865H27.3164V11.0739H31.5415ZM11.8242 25.1577H13.2326V43.4666H11.8242V25.1577ZM42.1044 43.4666V35.0164H44.2169V43.4666H42.1044ZM38.5834 35.0164H40.696V43.4666H38.5834V35.0164ZM44.2169 33.608H38.5834V25.1577H44.2169V33.608ZM37.175 43.4666H35.7667V25.1577H37.175V43.4666ZM34.3583 43.4666H24.4996V25.1577H34.3583V43.4666ZM23.0912 43.4666H21.6829V25.1577H23.0912V43.4666ZM14.641 35.0164H16.7535V43.4666H14.641V35.0164ZM18.1619 35.0164H20.2745V43.4666H18.1619V35.0164ZM20.2745 33.608H14.641V25.1577H20.2745V33.608ZM49.1463 46.9876H9.71165V44.875H49.1463V46.9876ZM47.0337 43.4666H45.6253V25.1577H47.0337V43.4666ZM9.71165 23.7493V22.341H49.1463V23.7493H9.71165Z" fill="#655D4D" stroke="#655D4D" stroke-width="0.893882" mask="url(#path-1-inside-1_48_174)"/>
</svg>
