<svg width="59" height="56" viewBox="0 0 59 56" fill="none" xmlns="http://www.w3.org/2000/svg">
<path d="M38.2449 31.2357H35.5323V23.776C35.5323 23.5962 35.4609 23.4237 35.3337 23.2965C35.2065 23.1693 35.034 23.0979 34.8542 23.0979H32.8197V17.6727C32.8197 14.795 31.6765 12.0351 29.6417 10.0003C27.6068 7.96543 24.847 6.82227 21.9693 6.82227C19.0916 6.82227 16.3317 7.96543 14.2969 10.0003C12.262 12.0351 11.1189 14.795 11.1189 17.6727V23.0979H9.0844C8.90454 23.0979 8.73205 23.1693 8.60488 23.2965C8.4777 23.4237 8.40625 23.5962 8.40625 23.776V45.4769C8.40625 45.6567 8.4777 45.8292 8.60488 45.9564C8.73205 46.0836 8.90454 46.155 9.0844 46.155H28.7508C28.7508 46.8745 29.0366 47.5644 29.5453 48.0731C30.054 48.5819 30.744 48.8676 31.4634 48.8676H38.2449C38.9643 48.8676 39.6543 48.5819 40.163 48.0731C40.6717 47.5644 40.9575 46.8745 40.9575 46.155V33.9483C40.9575 33.2289 40.6717 32.5389 40.163 32.0302C39.6543 31.5215 38.9643 31.2357 38.2449 31.2357ZM28.7508 23.0979V21.0634H31.4634V23.0979H28.7508ZM27.3945 23.0979H16.5441V17.6727C16.5441 16.2338 17.1156 14.8539 18.1331 13.8365C19.1505 12.8191 20.5304 12.2475 21.9693 12.2475C23.4081 12.2475 24.7881 12.8191 25.8055 13.8365C26.8229 14.8539 27.3945 16.2338 27.3945 17.6727V23.0979ZM21.9693 8.17857C24.4864 8.18126 26.8997 9.1824 28.6797 10.9623C30.4596 12.7422 31.4607 15.1555 31.4634 17.6727V19.7071H28.7508V17.6727C28.7508 15.8741 28.0363 14.1492 26.7645 12.8774C25.4928 11.6057 23.7678 10.8912 21.9693 10.8912C20.1707 10.8912 18.4458 11.6057 17.174 12.8774C15.9022 14.1492 15.1878 15.8741 15.1878 17.6727V19.7071H12.4752V17.6727C12.4779 15.1555 13.479 12.7422 15.2589 10.9623C17.0388 9.1824 19.4521 8.18126 21.9693 8.17857ZM12.4752 21.0634H15.1878V23.0979H12.4752V21.0634ZM9.76255 44.7987V24.4542H34.176V31.2357H32.8197V26.4887C32.8197 26.3088 32.7482 26.1363 32.6211 26.0091C32.4939 25.882 32.3214 25.8105 32.1415 25.8105H11.797C11.6171 25.8105 11.4447 25.882 11.3175 26.0091C11.1903 26.1363 11.1189 26.3088 11.1189 26.4887V42.7643C11.1189 42.9441 11.1903 43.1166 11.3175 43.2438C11.4447 43.371 11.6171 43.4424 11.797 43.4424H28.7508V44.7987H9.76255ZM28.7508 33.9483V42.0861H12.4752V27.1668H31.4634V31.2357C30.744 31.2357 30.054 31.5215 29.5453 32.0302C29.0366 32.5389 28.7508 33.2289 28.7508 33.9483ZM39.6012 46.155C39.6012 46.5148 39.4583 46.8597 39.204 47.1141C38.9496 47.3685 38.6046 47.5113 38.2449 47.5113H31.4634C31.1037 47.5113 30.7587 47.3685 30.5043 47.1141C30.25 46.8597 30.1071 46.5148 30.1071 46.155V33.9483C30.1071 33.5886 30.25 33.2436 30.5043 32.9893C30.7587 32.7349 31.1037 32.592 31.4634 32.592H38.2449C38.6046 32.592 38.9496 32.7349 39.204 32.9893C39.4583 33.2436 39.6012 33.5886 39.6012 33.9483V46.155Z" fill="#655D4D"/>
<path d="M37.0968 37.5086L36.1996 38.5258C36.5096 38.7991 36.729 39.1604 36.8286 39.5615C36.9282 39.9625 36.9033 40.3844 36.7573 40.771C36.6112 41.1576 36.3508 41.4905 36.0109 41.7255C35.6709 41.9605 35.2674 42.0863 34.8542 42.0863C34.4409 42.0863 34.0374 41.9605 33.6974 41.7255C33.3575 41.4905 33.0971 41.1576 32.951 40.771C32.805 40.3844 32.7801 39.9625 32.8797 39.5615C32.9793 39.1604 33.1987 38.7991 33.5087 38.5258L32.6115 37.5086C32.0949 37.9642 31.7293 38.5662 31.5633 39.2347C31.3973 39.9031 31.4389 40.6063 31.6824 41.2505C31.9259 41.8948 32.3598 42.4496 32.9264 42.8412C33.493 43.2328 34.1654 43.4426 34.8542 43.4426C35.5429 43.4426 36.2153 43.2328 36.7819 42.8412C37.3485 42.4496 37.7824 41.8948 38.0259 41.2505C38.2694 40.6063 38.311 39.9031 38.145 39.2347C37.979 38.5662 37.6134 37.9642 37.0968 37.5086Z" fill="#655D4D"/>
<path d="M34.176 36.6609H35.5323V39.3735H34.176V36.6609Z" fill="#655D4D"/>
<path d="M21.9693 28.5231C20.8905 28.5242 19.8561 28.9532 19.0933 29.7161C18.3305 30.4789 17.9014 31.5132 17.9004 32.592C17.8996 33.1623 18.0202 33.7263 18.254 34.2465C18.4878 34.7666 18.8296 35.2311 19.2567 35.6091V38.0172C19.2567 38.7367 19.5425 39.4266 20.0512 39.9353C20.5599 40.444 21.2498 40.7298 21.9693 40.7298C22.6887 40.7298 23.3787 40.444 23.8874 39.9353C24.3961 39.4266 24.6819 38.7367 24.6819 38.0172V35.6091C25.1089 35.2311 25.4507 34.7666 25.6846 34.2465C25.9184 33.7263 26.0389 33.1623 26.0382 32.592C26.0371 31.5132 25.6081 30.4789 24.8452 29.7161C24.0824 28.9532 23.0481 28.5242 21.9693 28.5231ZM23.5968 34.7485C23.5126 34.8117 23.4443 34.8936 23.3972 34.9878C23.3501 35.0819 23.3256 35.1858 23.3256 35.2911V38.0172C23.3256 38.3769 23.1827 38.7219 22.9283 38.9763C22.674 39.2306 22.329 39.3735 21.9693 39.3735C21.6096 39.3735 21.2646 39.2306 21.0102 38.9763C20.7559 38.7219 20.613 38.3769 20.613 38.0172V35.2897C20.613 35.1844 20.5885 35.0806 20.5414 34.9864C20.4943 34.8923 20.4259 34.8103 20.3417 34.7472C20.0054 34.4973 19.7322 34.1724 19.5438 33.7982C19.3554 33.424 19.2571 33.011 19.2567 32.592C19.2567 31.8726 19.5425 31.1826 20.0512 30.6739C20.5599 30.1652 21.2498 29.8794 21.9693 29.8794C22.6887 29.8794 23.3787 30.1652 23.8874 30.6739C24.3961 31.1826 24.6819 31.8726 24.6819 32.592C24.6817 33.0112 24.5835 33.4245 24.3951 33.7989C24.2067 34.1734 23.9333 34.4986 23.5968 34.7485Z" fill="#655D4D"/>
<path d="M42.992 27.845C42.5896 27.845 42.1963 27.9643 41.8617 28.1878C41.5271 28.4114 41.2664 28.7291 41.1124 29.1009C40.9584 29.4726 40.9181 29.8817 40.9966 30.2763C41.0751 30.671 41.2689 31.0335 41.5534 31.318C41.8379 31.6025 42.2004 31.7963 42.5951 31.8748C42.9897 31.9533 43.3988 31.913 43.7705 31.759C44.1423 31.605 44.46 31.3443 44.6836 31.0097C44.9071 30.6751 45.0264 30.2818 45.0264 29.8794C45.0264 29.3398 44.8121 28.8224 44.4305 28.4408C44.049 28.0593 43.5315 27.845 42.992 27.845ZM42.992 30.5576C42.8578 30.5576 42.7267 30.5178 42.6152 30.4433C42.5037 30.3688 42.4168 30.2628 42.3654 30.1389C42.3141 30.015 42.3007 29.8787 42.3268 29.7471C42.353 29.6156 42.4176 29.4947 42.5124 29.3999C42.6073 29.305 42.7281 29.2405 42.8597 29.2143C42.9912 29.1881 43.1276 29.2016 43.2515 29.2529C43.3754 29.3042 43.4813 29.3911 43.5558 29.5027C43.6303 29.6142 43.6701 29.7453 43.6701 29.8794C43.6701 30.0593 43.5987 30.2318 43.4715 30.3589C43.3443 30.4861 43.1718 30.5576 42.992 30.5576Z" fill="#655D4D"/>
<path d="M42.992 25.1324V26.4887C43.8909 26.4897 44.7527 26.8473 45.3884 27.483C46.0241 28.1186 46.3816 28.9805 46.3827 29.8794H47.739C47.7376 28.6209 47.237 27.4143 46.3471 26.5243C45.4571 25.6344 44.2505 25.1338 42.992 25.1324Z" fill="#655D4D"/>
<path d="M42.992 22.4197V23.776C44.6101 23.7778 46.1615 24.4214 47.3057 25.5657C48.4499 26.7099 49.0935 28.2612 49.0953 29.8794H50.4516C50.4493 27.9017 49.6626 26.0057 48.2642 24.6072C46.8657 23.2088 44.9697 22.4221 42.992 22.4197Z" fill="#655D4D"/>
</svg>
