<svg width="59" height="56" viewBox="0 0 59 56" fill="none" xmlns="http://www.w3.org/2000/svg">
<path d="M26.5227 27.8429L26.478 27.7535L26.5227 27.8429C27.5062 27.3511 28.1274 26.346 28.1274 25.2464V18.7351C28.1274 18.0163 28.7101 17.4336 29.429 17.4336C30.1478 17.4336 30.7305 18.0163 30.7305 18.7351V25.2464C30.7305 27.3319 29.5522 29.2385 27.6868 30.1711L27.7315 30.2606L27.6868 30.1711L27.208 30.4106C26.5651 30.732 25.7833 30.4714 25.4618 29.8285C25.1404 29.1856 25.401 28.4038 26.0439 28.0823L26.5227 27.8429ZM8.50631 12.4283C8.50631 9.3874 10.9714 6.92227 14.0123 6.92227H19.6184C20.3372 6.92227 20.9199 7.50497 20.9199 8.22378C20.9199 8.94258 20.3372 9.52529 19.6184 9.52529H14.0123C12.4091 9.52529 11.1093 10.825 11.1093 12.4283V18.0343C11.1093 18.7532 10.5266 19.3359 9.80782 19.3359C9.08902 19.3359 8.50631 18.7532 8.50631 18.0343V12.4283ZM20.862 35.8305L20.796 35.9057L20.862 35.8305C20.3218 35.3563 20.2684 34.534 20.7426 33.9938C21.2168 33.4536 22.0391 33.4002 22.5793 33.8744C26.3453 37.1805 32.5126 37.1805 36.2786 33.8744C36.8188 33.4002 37.6411 33.4536 38.1153 33.9938C38.5896 34.534 38.5361 35.3563 37.9959 35.8305C33.2475 39.9991 25.6104 39.9991 20.862 35.8305ZM37.938 8.22378C37.938 7.50497 38.5207 6.92227 39.2395 6.92227H44.8456C47.8865 6.92227 50.3516 9.3874 50.3516 12.4283V18.0343C50.3516 18.7532 49.7689 19.3359 49.0501 19.3359C48.3313 19.3359 47.7486 18.7532 47.7486 18.0343V12.4283C47.7486 10.825 46.4488 9.52529 44.8456 9.52529H39.2395C38.5207 9.52529 37.938 8.94258 37.938 8.22378ZM9.80782 36.354C10.5266 36.354 11.1093 36.9367 11.1093 37.6555V43.2615C11.1093 44.8648 12.4091 46.1645 14.0123 46.1645H19.6184C20.3372 46.1645 20.9199 46.7472 20.9199 47.466C20.9199 48.1849 20.3372 48.7676 19.6184 48.7676H14.0123C10.9714 48.7676 8.50631 46.3024 8.50631 43.2615V37.6555C8.50631 36.9367 9.08902 36.354 9.80782 36.354ZM49.0501 36.354C49.7689 36.354 50.3516 36.9367 50.3516 37.6555V43.2615C50.3516 46.3024 47.8865 48.7676 44.8456 48.7676H39.2395C38.5207 48.7676 37.938 48.1849 37.938 47.466C37.938 46.7472 38.5207 46.1645 39.2395 46.1645H44.8456C46.4488 46.1645 47.7486 44.8648 47.7486 43.2615V37.6555C47.7486 36.9367 48.3313 36.354 49.0501 36.354ZM20.3191 17.4336C21.038 17.4336 21.6207 18.0163 21.6207 18.7351V21.5381C21.6207 22.2569 21.038 22.8396 20.3191 22.8396C19.6003 22.8396 19.0176 22.2569 19.0176 21.5381V18.7351C19.0176 18.0163 19.6003 17.4336 20.3191 17.4336ZM38.5388 17.4336C39.2576 17.4336 39.8403 18.0163 39.8403 18.7351V21.5381C39.8403 22.2569 39.2576 22.8396 38.5388 22.8396C37.8199 22.8396 37.2373 22.2569 37.2373 21.5381V18.7351C37.2373 18.0163 37.8199 17.4336 38.5388 17.4336Z" fill="#655D4D" stroke="white" stroke-width="0.2"/>
</svg>
