<svg width="59" height="56" viewBox="0 0 59 56" fill="none" xmlns="http://www.w3.org/2000/svg">
<path d="M52.0612 6.82227H20.4681C16.1888 6.82227 12.7069 11.7778 12.7069 17.8695C12.7069 17.8737 12.7093 17.8774 12.7094 17.8817C12.7128 23.7471 15.9496 28.5433 20.0139 28.8811V34.7311H13.7327V30.2446C13.7327 28.9132 12.6496 27.8301 11.3182 27.8301H7.33466L7.33466 26.655C7.33466 26.355 7.0913 26.1117 6.79135 26.1117C6.49141 26.1117 6.24805 26.355 6.24805 26.655L6.24805 48.3242C6.24805 48.6242 6.4914 48.8676 6.79135 48.8676C7.0913 48.8676 7.33466 48.6242 7.33466 48.3242L7.33466 47.7167H11.3182C12.6496 47.7167 13.7327 46.6336 13.7327 45.3022V40.7683H20.0139V41.7C20.0139 43.0314 21.097 44.1144 22.4284 44.1144H25.6147C26.9453 44.1144 28.0284 43.0314 28.0284 41.7V28.9139H41.1265C45.405 28.9139 48.8863 23.9605 48.8863 17.8723C48.8863 16.2296 48.6336 14.6353 48.1611 13.1884C52.9001 11.09 52.6174 7.47062 52.6017 7.31251C52.5754 7.04706 52.3032 6.82227 52.0612 6.82227ZM45.3696 9.31737L45.3665 9.31984C45.3631 9.32258 45.3588 9.32302 45.3555 9.32586C45.3525 9.32833 45.3514 9.33204 45.3485 9.33452C43.8484 10.4887 42.8633 11.8126 42.3015 12.7222C41.8035 13.5273 40.9496 14.0076 40.0179 14.0076H36.8812C36.0195 14.0076 35.177 14.3076 34.5092 14.8509C34.4269 14.9177 32.0911 16.8163 32.2001 16.7277C31.7247 17.1139 31.1269 17.3262 30.5157 17.3262H13.8141C13.9687 13.0823 16.2641 7.90957 20.4688 7.90957C21.4534 7.90954 41.8559 7.90902 47.7254 7.90886C46.8906 8.28593 46.1039 8.75567 45.3696 9.31737ZM39.086 15.0942H40.0179C41.0153 15.0942 41.9465 14.7029 42.6428 14.0199C43.1801 14.867 43.6534 16.1901 43.6534 17.8652C43.6534 20.8895 42.1324 22.8965 41.1265 22.8965C40.1205 22.8965 38.5995 20.8895 38.5995 17.8652C38.5995 16.874 38.7728 15.9281 39.086 15.0942ZM12.646 45.3022C12.646 46.0344 12.0504 46.6301 11.3182 46.6301H7.33466V28.9167H11.3182C12.0504 28.9167 12.646 29.5124 12.646 30.2446V45.3022ZM13.7327 39.6817V35.8177H20.0139V39.6817H13.7327ZM26.9418 41.7C26.9418 42.4322 26.3461 43.0278 25.6146 43.0278H22.4284C21.6962 43.0278 21.1005 42.4322 21.1005 41.7C21.1005 37.1693 21.1005 33.3528 21.1005 28.9167H26.9418V41.7ZM37.7711 27.8273H20.4688C16.9118 27.8273 14.0039 23.6499 13.814 18.4128H30.5157C31.3753 18.4128 32.2171 18.1136 32.8849 17.571L33.3896 17.1608C33.3791 17.3982 33.3674 17.6358 33.3674 17.8723C33.3674 21.5513 34.754 25.7576 37.7711 27.8273ZM41.1265 27.8273C37.4471 27.8273 34.454 23.3613 34.454 17.8723C34.454 17.3082 34.4916 16.753 34.5558 16.2131L35.1954 15.6934C35.6701 15.3072 36.2685 15.0942 36.8812 15.0942H37.9284C37.6569 15.9513 37.5129 16.8936 37.5129 17.8652C37.5129 21.1244 39.2015 23.9831 41.1265 23.9831C43.0514 23.9831 44.74 21.1244 44.74 17.8652C44.74 16.0318 44.2195 14.2969 43.3398 13.1156C43.8107 12.3836 44.5495 11.4205 45.6085 10.5233C47.0012 12.4187 47.7997 15.0559 47.7997 17.8723C47.7997 23.3613 44.8058 27.8273 41.1265 27.8273ZM47.7809 12.1712C47.4256 11.327 46.9822 10.5575 46.4733 9.86669C47.9406 8.85489 49.6241 8.22112 51.4926 7.97768C51.3636 8.92333 50.7168 10.8481 47.7809 12.1712Z" fill="#655D4D"/>
<path d="M33.9079 9.58619H28.525C28.2251 9.58619 27.9817 9.82955 27.9817 10.1295C27.9817 10.4294 28.2251 10.6728 28.525 10.6728H33.9079C34.2078 10.6728 34.4512 10.4294 34.4512 10.1295C34.4512 9.82955 34.2078 9.58619 33.9079 9.58619Z" fill="#655D4D"/>
<path d="M26.0957 9.58619H25.8439C25.5439 9.58619 25.3005 9.82955 25.3005 10.1295C25.3005 10.4294 25.5439 10.6728 25.8439 10.6728H26.0957C26.3956 10.6728 26.639 10.4294 26.639 10.1295C26.639 9.82955 26.3957 9.58619 26.0957 9.58619Z" fill="#655D4D"/>
</svg>
