<svg width="59" height="56" viewBox="0 0 59 56" fill="none" xmlns="http://www.w3.org/2000/svg">
<path fill-rule="evenodd" clip-rule="evenodd" d="M48.9611 48.8676H9.89679C9.66931 48.8676 9.48618 48.6837 9.48618 48.457V7.23288C9.48618 7.00622 9.66931 6.82227 9.89679 6.82227H48.9611C49.1886 6.82227 49.3717 7.00622 49.3717 7.23288V48.457C49.3717 48.6837 49.1878 48.8676 48.9611 48.8676ZM10.3074 48.0464H48.5505V7.6435H10.3074V48.0464Z" fill="#655D4D"/>
<path fill-rule="evenodd" clip-rule="evenodd" d="M48.9611 9.88628H9.89679C9.66931 9.88628 9.48618 9.70232 9.48618 9.47566C9.48618 9.249 9.66931 9.06505 9.89679 9.06505H48.9611C49.1886 9.06505 49.3717 9.249 49.3717 9.47566C49.3717 9.70232 49.1886 9.88628 48.9611 9.88628Z" fill="#655D4D"/>
<path fill-rule="evenodd" clip-rule="evenodd" d="M48.9611 12.6867H9.89679C9.66931 12.6867 9.48618 12.5027 9.48618 12.2761C9.48618 12.0494 9.66931 11.8654 9.89679 11.8654H48.9611C49.1886 11.8654 49.3717 12.0494 49.3717 12.2761C49.3717 12.5027 49.1886 12.6867 48.9611 12.6867Z" fill="#655D4D"/>
<path fill-rule="evenodd" clip-rule="evenodd" d="M39.7699 48.8676H12.6249C12.3983 48.8676 12.2143 48.6837 12.2143 48.457V15.9938C12.2143 15.7671 12.3983 15.5832 12.6249 15.5832H39.7699C39.9965 15.5832 40.1797 15.7671 40.1797 15.9938V48.457C40.1805 48.6837 39.9965 48.8676 39.7699 48.8676ZM13.0355 48.0464H39.3593V16.4044H13.0355V48.0464Z" fill="#655D4D"/>
<path fill-rule="evenodd" clip-rule="evenodd" d="M37.0122 46.11H15.3826C15.156 46.11 14.972 45.926 14.972 45.6993V18.7515C14.972 18.5248 15.156 18.3409 15.3826 18.3409H37.0122C37.2389 18.3409 37.4228 18.5248 37.4228 18.7515V45.6993C37.4228 45.926 37.2389 46.11 37.0122 46.11ZM15.7932 45.2887H36.6016V19.1621H15.7932V45.2887Z" fill="#655D4D"/>
<path fill-rule="evenodd" clip-rule="evenodd" d="M27.5615 46.11H24.8333C24.6067 46.11 24.4227 45.926 24.4227 45.6993V18.7515C24.4227 18.5248 24.6067 18.3409 24.8333 18.3409H27.5615C27.7889 18.3409 27.9721 18.5248 27.9721 18.7515V45.6993C27.9721 45.926 27.7889 46.11 27.5615 46.11ZM25.244 45.2887H27.1509V19.1621H25.244V45.2887Z" fill="#655D4D"/>
<path fill-rule="evenodd" clip-rule="evenodd" d="M20.0776 35.0775C19.8509 35.0775 19.667 34.8936 19.667 34.6669V29.7839C19.667 29.5572 19.8509 29.3733 20.0776 29.3733C20.3051 29.3733 20.4882 29.5572 20.4882 29.7839V34.6669C20.4882 34.8936 20.3051 35.0775 20.0776 35.0775Z" fill="#655D4D"/>
<path fill-rule="evenodd" clip-rule="evenodd" d="M22.1602 31.9183C22.0683 31.9183 21.9755 31.8871 21.8991 31.8238L20.0776 30.3169L18.2569 31.8238C18.0828 31.9684 17.8233 31.9437 17.6788 31.7696C17.5342 31.5947 17.5589 31.336 17.7338 31.1906L19.8164 29.4677C19.9684 29.3421 20.1876 29.3421 20.3396 29.4677L22.4222 31.1906C22.5971 31.336 22.6218 31.5947 22.4772 31.7696C22.3959 31.8673 22.2785 31.9183 22.1602 31.9183Z" fill="#655D4D"/>
<path fill-rule="evenodd" clip-rule="evenodd" d="M32.3172 35.0775C32.0906 35.0775 31.9066 34.8936 31.9066 34.6669V29.7839C31.9066 29.5564 32.0906 29.3733 32.3172 29.3733C32.5439 29.3733 32.7278 29.5564 32.7278 29.7839V34.6669C32.7278 34.8936 32.5439 35.0775 32.3172 35.0775Z" fill="#655D4D"/>
<path fill-rule="evenodd" clip-rule="evenodd" d="M32.3172 35.0775C32.2244 35.0775 32.1316 35.0463 32.0552 34.9831L29.9726 33.2593C29.7977 33.1148 29.7739 32.8561 29.9184 32.6812C30.0629 32.5071 30.3216 32.4824 30.4965 32.627L32.3172 34.1339L34.1379 32.627C34.3128 32.4824 34.5715 32.5071 34.716 32.6812C34.8606 32.8561 34.8368 33.1148 34.6618 33.2593L32.5792 34.9831C32.5028 35.0463 32.41 35.0775 32.3172 35.0775Z" fill="#655D4D"/>
<path fill-rule="evenodd" clip-rule="evenodd" d="M46.1804 30.9665C46.1804 30.9665 46.1796 30.9665 46.1788 30.9665H41.9601C41.8106 30.9665 41.6727 30.8852 41.6004 30.7538C41.5281 30.6232 41.5331 30.463 41.6127 30.3366L43.7668 26.9252C43.8424 26.8061 43.9738 26.7338 44.1142 26.7338H44.1183C44.2604 26.7355 44.3918 26.8102 44.4657 26.9317L46.513 30.3144C46.5623 30.3826 46.591 30.4655 46.591 30.5558C46.591 30.7825 46.4071 30.9665 46.1804 30.9665ZM42.705 30.1452H45.4503L44.1068 27.9254L42.705 30.1452Z" fill="#655D4D"/>
<path fill-rule="evenodd" clip-rule="evenodd" d="M44.1142 37.717C43.9738 37.717 43.8424 37.6447 43.7668 37.5256L41.6127 34.1142C41.5331 33.9878 41.5281 33.8276 41.6004 33.697C41.6727 33.5657 41.8106 33.4844 41.9601 33.4844H46.1788C46.3274 33.4844 46.4637 33.564 46.5368 33.6938C46.6091 33.8227 46.6066 33.9812 46.5303 34.1077L44.4657 37.5191C44.3918 37.6406 44.2604 37.7153 44.1183 37.717C44.1167 37.717 44.1158 37.717 44.1142 37.717ZM42.705 34.3056L44.1068 36.5254L45.4503 34.3056H42.705Z" fill="#655D4D"/>
</svg>
