<svg width="176" height="147" viewBox="0 0 176 147" fill="none" xmlns="http://www.w3.org/2000/svg">
<path d="M0.0802002 138.759C0.0802002 143.178 3.66192 146.759 8.0802 146.759C12.4985 146.759 16.0802 143.178 16.0802 138.759C16.0802 134.341 12.4985 130.759 8.0802 130.759C3.66192 130.759 0.0802002 134.341 0.0802002 138.759ZM160.008 8.01514C160.008 12.4334 163.59 16.0151 168.008 16.0151C172.426 16.0151 176.008 12.4334 176.008 8.01514C176.008 3.59686 172.426 0.0151367 168.008 0.0151367C163.59 0.0151367 160.008 3.59686 160.008 8.01514ZM9.0296 139.921L168.958 9.17645L167.059 6.85382L7.1308 137.598L9.0296 139.921Z" fill="#F4F3F3"/>
</svg>
