<svg width="360" height="154" viewBox="0 0 360 154" fill="none" xmlns="http://www.w3.org/2000/svg">
<path d="M0.555908 145.323C0.555908 149.742 4.13763 153.323 8.55591 153.323C12.9742 153.323 16.5559 149.742 16.5559 145.323C16.5559 140.905 12.9742 137.323 8.55591 137.323C4.13763 137.323 0.555908 140.905 0.555908 145.323ZM343.759 8.15869C343.759 12.577 347.341 16.1587 351.759 16.1587C356.178 16.1587 359.759 12.577 359.759 8.15869C359.759 3.74041 356.178 0.158691 351.759 0.158691C347.341 0.158691 343.759 3.74041 343.759 8.15869ZM9.11259 146.716L352.316 9.55157L351.203 6.76581L7.99923 143.93L9.11259 146.716Z" fill="#F4F3F3"/>
</svg>
