<svg width="260" height="111" viewBox="0 0 260 111" fill="none" xmlns="http://www.w3.org/2000/svg">
<path d="M0.614014 102.578C0.614014 106.996 4.19574 110.578 8.61401 110.578C13.0323 110.578 16.614 106.996 16.614 102.578C16.614 98.1594 13.0323 94.5777 8.61401 94.5777C4.19574 94.5777 0.614014 98.1594 0.614014 102.578ZM244.008 8.02197C244.008 12.4403 247.59 16.022 252.008 16.022C256.427 16.022 260.008 12.4403 260.008 8.02197C260.008 3.60369 256.427 0.0219727 252.008 0.0219727C247.59 0.0219727 244.008 3.60369 244.008 8.02197ZM9.1572 103.976L252.551 9.42017L251.465 6.62378L8.07083 101.18L9.1572 103.976Z" fill="#F4F3F3"/>
</svg>
