<svg width="486" height="88" viewBox="0 0 486 88" fill="none" xmlns="http://www.w3.org/2000/svg">
<path d="M27.6686 0.496582L51.3505 50.5651H43.3026L40.0702 43.3747H25.0959C22.2813 43.3747 19.8186 43.6386 17.7076 44.1663C15.5967 44.6501 13.9036 45.2658 12.6282 46.0134C11.3969 46.761 10.5833 47.5086 10.1875 48.2562L8.93412 50.5651H1.15009L22.4572 6.56549L19.7526 0.496582H27.6686ZM26.0854 15.339L15.2009 38.889C16.1684 38.0534 17.7076 37.3938 19.8186 36.91C21.9295 36.3823 24.5681 36.1184 27.7345 36.1184H36.8379L26.0854 15.339Z" fill="#EBEBEB"/>
<path d="M60.5559 1.35415H67.7462V43.3747H95.0563V50.5651H60.5559V1.35415Z" fill="#EBEBEB"/>
<path d="M122.915 50.5651H115.923V8.61045H98.3757V1.35415H140.264V8.61045H122.915V50.5651Z" fill="#EBEBEB"/>
<path d="M165.814 22.9911C168.76 19.9127 171.421 16.4824 173.796 12.7004C176.171 8.91829 178.062 5.13622 179.469 1.35415H187.715C183.493 11.2491 177.38 20.5504 169.376 29.2579V50.5651H162.252V29.2579C154.248 20.5504 148.135 11.2491 143.913 1.35415H152.159C153.566 5.13622 155.457 8.91829 157.832 12.7004C160.207 16.4824 162.867 19.9127 165.814 22.9911Z" fill="#EBEBEB"/>
<path d="M201.625 1.35415L233.223 38.955V1.35415H240.479V50.5651H233.355L205.121 16.7243V50.5651H198.063V8.28062L192.324 1.35415H201.625Z" fill="#EBEBEB"/>
<path d="M293.467 0.496582L317.149 50.5651H309.101L305.868 43.3747H290.894C288.079 43.3747 285.617 43.6386 283.506 44.1663C281.395 44.6501 279.702 45.2658 278.426 46.0134C277.195 46.761 276.381 47.5086 275.986 48.2562L274.732 50.5651H266.948L288.255 6.56549L285.551 0.496582H293.467ZM291.883 15.339L280.999 38.889C281.966 38.0534 283.506 37.3938 285.617 36.91C287.728 36.3823 290.366 36.1184 293.533 36.1184H302.636L291.883 15.339Z" fill="#EBEBEB"/>
<path d="M345.201 1.35415C349.555 1.35415 353.491 2.45359 357.009 4.65246C360.571 6.85134 363.363 9.81983 365.386 13.5579C367.409 17.296 368.421 21.3639 368.421 25.7617C368.421 29.06 367.761 32.3364 366.442 35.5907C365.167 38.8011 363.385 41.6156 361.099 44.0344C358.9 46.4092 356.569 48.1023 354.106 49.1138C351.643 50.0813 348.741 50.5651 345.399 50.5651H327.192V8.61045H323.3L320.134 1.35415H345.201ZM345.399 43.3747C348.477 43.3747 351.204 42.6051 353.578 41.0659C355.997 39.4827 357.866 37.3938 359.186 34.7991C360.505 32.2044 361.165 29.3679 361.165 26.2894C361.165 23.0791 360.527 20.1326 359.252 17.4499C358.02 14.7673 356.195 12.6344 353.776 11.0512C351.358 9.42403 348.521 8.61045 345.267 8.61045H334.25V43.3747H345.399Z" fill="#EBEBEB"/>
<path d="M397.634 0.496582L421.316 50.5651H413.268L410.036 43.3747H395.062C392.247 43.3747 389.784 43.6386 387.673 44.1663C385.562 44.6501 383.869 45.2658 382.594 46.0134C381.363 46.761 380.549 47.5086 380.153 48.2562L378.9 50.5651H371.116L392.423 6.56549L389.718 0.496582H397.634ZM396.051 15.339L385.167 38.889C386.134 38.0534 387.673 37.3938 389.784 36.91C391.895 36.3823 394.534 36.1184 397.7 36.1184H406.804L396.051 15.339Z" fill="#EBEBEB"/>
<path d="M439.031 16.7243V50.5651H431.973V8.28062L426.234 1.35415H435.535L455.655 25.4978L476.038 1.35415H485.34L479.601 8.28062V50.5651H472.542V16.7243L455.721 36.8441L439.031 16.7243Z" fill="#EBEBEB"/>
<path d="M12.9484 67.4707V68.5077H7.37197V83.2608H6.25669V68.5077H0.660706V67.4707H12.9484Z" fill="white"/>
<path d="M26.9968 67.4702L21.0682 77.3317H24.7858V78.173H20.7552V83.2603H19.6203V78.173H15.5505V77.3317H19.3073L13.3786 67.4702H14.6309L20.2269 76.7642L25.8229 67.4702H26.9968Z" fill="white"/>
<path d="M35.2346 67.4702C39.1283 67.4702 41.4763 69.4464 41.4763 72.7923C41.4763 76.1381 39.1283 78.0948 35.2346 78.0948H30.8126V83.2603H29.6777V67.4702H35.2346ZM35.2346 77.0577C38.5609 77.0577 40.3218 75.4924 40.3218 72.7923C40.3218 70.0921 38.5413 68.5072 35.2346 68.5072H30.8126V77.0577H35.2346Z" fill="white"/>
<path d="M55.3881 68.5072H46.9354V75.4337H53.7445V76.3534H46.9354V83.2603H45.8005V76.3534H43.4134V75.4337H45.8005V67.4702H55.3881V68.5072Z" fill="white"/>
<path d="M64.7991 73.2423C68.458 73.2423 70.3951 74.9054 70.3951 78.1535C70.3951 81.4015 68.321 83.2603 64.5056 83.2603H58.577V67.4702H59.7118V73.2423H64.7991ZM73.2518 67.4702H74.3866V83.2603H73.2518V67.4702ZM64.5252 82.3015C67.6167 82.3015 69.2407 80.9123 69.2407 78.1926C69.2407 75.4729 67.6558 74.2206 64.5252 74.2206H59.6923V82.3015H64.5252Z" fill="white"/>
<path d="M91.4486 67.4702H92.5834V83.2603H91.4486V75.7468H81.098V83.2603H79.9631V67.4702H81.098V74.7293H91.4486V67.4702Z" fill="white"/>
<path d="M114.948 67.4702L108.706 77.8208V83.2603H107.571V77.8208L101.33 67.4702H102.582L108.178 76.7642L113.774 67.4702H114.948Z" fill="white"/>
<path d="M123.909 66.2764C121.874 66.2764 120.505 65.259 120.446 63.5176H121.346C121.385 64.7894 122.403 65.5525 123.89 65.5525C125.377 65.5525 126.375 64.7894 126.414 63.5176H127.314C127.275 65.259 125.905 66.2764 123.89 66.2764M117.609 83.26V67.47H118.744V81.323L129.31 67.47H130.307V83.26H129.173V69.4266L118.607 83.26H117.609Z" fill="white"/>
<path d="M152.339 83.2603L146.43 75.7664H142.713V83.2603H141.578V67.4702H142.713V74.7293H146.45L152.007 67.4702H153.279L147.35 75.1598L153.67 83.2603H152.339Z" fill="white"/>
<path d="M157.564 82.2233H167.132V83.2603H156.429V67.4702H166.799V68.5072H157.564V74.7293H165.821V75.7468H157.564V82.2233Z" fill="white"/>
<path d="M188.4 67.4702H189.515V83.2603H170.908V67.4702H172.023V82.2233H179.654V67.4702H180.769V82.2233H188.4V67.4702Z" fill="white"/>
<path d="M196.227 82.2233H205.795V83.2603H195.092V67.4702H205.462V68.5072H196.227V74.7293H204.484V75.7468H196.227V82.2233Z" fill="white"/>
<path d="M221.056 67.4702H222.172V83.2603H221.056V75.7468H210.686V83.2603H209.551V67.4702H210.686V74.7293H221.056V67.4702Z" fill="white"/>
<path d="M228.902 67.4702H227.768V83.2603H228.902V67.4702Z" fill="white"/>
<path d="M271.166 83.2603L266.059 75.7664H262.655V83.2603H261.539V75.7664H258.135L253.028 83.2603H251.678L257.195 75.1402L252.089 67.4702H253.38L258.115 74.7293H261.539V67.4702H262.655V74.7293H266.059L270.814 67.4702H272.085L266.998 75.1402L272.516 83.2603H271.166Z" fill="white"/>
<path d="M275.373 83.2603V67.4702H276.508V81.3232L287.054 67.4702H288.052V83.2603H286.936V69.4269L276.371 83.2603H275.373Z" fill="white"/>
<path d="M294.92 67.4702H305.074V83.2603H303.94V68.5072H295.917L295.722 74.2989C295.487 80.6579 294.489 83.3972 291.867 83.3972C291.515 83.3972 291.182 83.3777 290.752 83.2603L290.889 82.2037C291.182 82.2624 291.378 82.3015 291.613 82.3015C293.628 82.3015 294.45 80.0318 294.665 74.338L294.88 67.4702H294.92Z" fill="white"/>
<path d="M317.303 83.3774C312.666 83.3774 309.242 79.9533 309.242 75.3747C309.242 70.7962 312.666 67.3721 317.303 67.3721C321.941 67.3721 325.365 70.7766 325.365 75.3747C325.365 79.9728 321.921 83.3774 317.303 83.3774ZM317.303 82.3208C321.236 82.3208 324.21 79.3663 324.21 75.3747C324.21 71.3832 321.236 68.4287 317.303 68.4287C313.37 68.4287 310.377 71.3832 310.377 75.3747C310.377 79.3663 313.351 82.3208 317.303 82.3208Z" fill="white"/>
<path d="M335.813 66.2764C333.778 66.2764 332.409 65.259 332.369 63.5176H333.27C333.309 64.7894 334.326 65.5525 335.813 65.5525C337.3 65.5525 338.298 64.7894 338.337 63.5176H339.237C339.198 65.259 337.829 66.2764 335.813 66.2764ZM329.532 83.26V67.47H330.667V81.323L341.233 67.47H342.231V83.26H341.096V69.4266L330.53 83.26H329.532Z" fill="white"/>
<path d="M364.243 83.2603L358.334 75.7664H354.616V83.2603H353.481V67.4702H354.616V74.7293H358.353L363.91 67.4702H365.182L359.234 75.1598L365.573 83.2603H364.243Z" fill="white"/>
<path d="M374.965 83.3774C370.348 83.3774 366.904 79.9533 366.904 75.3747C366.904 70.7962 370.328 67.3721 374.965 67.3721C379.603 67.3721 383.027 70.7766 383.027 75.3747C383.027 79.9728 379.563 83.3774 374.965 83.3774ZM374.965 82.3208C378.898 82.3208 381.872 79.3663 381.872 75.3747C381.872 71.3832 378.898 68.4287 374.965 68.4287C371.033 68.4287 368.039 71.3832 368.039 75.3747C368.039 79.3663 371.013 82.3208 374.965 82.3208Z" fill="white"/>
<path d="M402.965 83.2603H401.85L401.83 69.7399L395.334 81.1667H394.786L388.29 69.779V83.2603H387.194V67.4702H388.153L395.08 79.6796L402.006 67.4702H402.926L402.965 83.2603Z" fill="white"/>
<path d="M408.542 67.4702H421.279V83.2603H420.164V68.5072H409.657V83.2603H408.542V67.4702Z" fill="white"/>
<path d="M428.127 67.4702H438.282V83.2603H437.147V68.5072H429.125L428.929 74.2989C428.694 80.6579 427.697 83.3972 425.075 83.3972C424.722 83.3972 424.39 83.3777 423.959 83.2603L424.096 82.2037C424.39 82.2624 424.585 82.3015 424.82 82.3015C426.836 82.3015 427.657 80.0318 427.873 74.338L428.088 67.4702H428.127Z" fill="white"/>
<path d="M445.013 82.2233H454.581V83.2603H443.878V67.4702H454.248V68.5072H445.013V74.7293H453.27V75.7468H445.013V82.2233Z" fill="white"/>
<path d="M469.099 83.2603L463.19 75.7664H459.473V83.2603H458.338V67.4702H459.473V74.7293H463.21L468.767 67.4702H470.039L464.11 75.1598L470.43 83.2603H469.099Z" fill="white"/>
<path d="M479.822 83.3774C475.224 83.3774 471.78 79.9728 471.78 75.3747C471.78 70.7766 475.204 67.3721 479.822 67.3721C482.013 67.3721 483.989 68.096 485.339 69.5635L484.635 70.307C483.305 68.9765 481.681 68.4287 479.88 68.4287C475.928 68.4287 472.934 71.4028 472.934 75.3747C472.934 79.3467 475.928 82.3208 479.88 82.3208C481.7 82.3208 483.305 81.7534 484.635 80.4229L485.339 81.1664C483.989 82.6339 482.013 83.3774 479.822 83.3774Z" fill="white"/>
<path d="M241.327 63.6938H240.192V87.4083H241.327V63.6938Z" fill="white"/>
</svg>
