<svg width="132" height="62" viewBox="0 0 132 62" fill="none" xmlns="http://www.w3.org/2000/svg">
<path d="M101 51.1707C94.5478 51.1707 89.2943 45.9172 89.2943 39.4646C89.2943 33.0121 94.5478 27.7586 101 27.7586C107.453 27.7586 112.706 33.0121 112.706 39.4646C112.706 45.9172 107.453 51.1707 101 51.1707ZM101 29.9167C95.7468 29.9167 91.4742 34.1893 91.4742 39.4428C91.4742 44.6964 95.7468 48.969 101 48.969C106.254 48.969 110.527 44.6964 110.527 39.4428C110.527 34.1893 106.254 29.9167 101 29.9167Z" fill="#655D4D"/>
<path d="M30.3279 51.1707C23.8754 51.1707 18.6218 45.9172 18.6218 39.4646C18.6218 33.0121 23.8754 27.7586 30.3279 27.7586C36.7804 27.7586 42.034 33.0121 42.034 39.4646C42.034 45.9172 36.7804 51.1707 30.3279 51.1707ZM30.3279 29.9167C25.0743 29.9167 20.8017 34.1893 20.8017 39.4428C20.8017 44.6964 25.0743 48.9908 30.3279 48.9908C35.5814 48.9908 39.854 44.7182 39.854 39.4646C39.854 34.2111 35.5814 29.9167 30.3279 29.9167Z" fill="#655D4D"/>
<path d="M30.3279 45.7646C26.8618 45.7646 24.0279 42.9307 24.0279 39.4646C24.0279 35.9986 26.8618 33.1647 30.3279 33.1647C33.7939 33.1647 36.6278 35.9986 36.6278 39.4646C36.6278 42.9307 33.7939 45.7646 30.3279 45.7646ZM30.3279 35.3228C28.0608 35.3228 26.2078 37.1757 26.2078 39.4428C26.2078 41.7099 28.0608 43.5629 30.3279 43.5629C32.595 43.5629 34.4479 41.7099 34.4479 39.4428C34.4479 37.1757 32.595 35.3228 30.3279 35.3228Z" fill="#655D4D"/>
<path d="M100.957 45.7646C97.4907 45.7646 94.6568 42.9307 94.6568 39.4646C94.6568 35.9986 97.4907 33.1647 100.957 33.1647C104.423 33.1647 107.257 35.9986 107.257 39.4646C107.257 42.9307 104.423 45.7646 100.957 45.7646ZM100.957 35.3228C98.6897 35.3228 96.8368 37.1757 96.8368 39.4428C96.8368 41.7099 98.6897 43.5629 100.957 43.5629C103.224 43.5629 105.077 41.7099 105.077 39.4428C105.077 37.1757 103.224 35.3228 100.957 35.3228Z" fill="#655D4D"/>
<path d="M117.938 45.721H110.243V43.5411H116.848V39.4428C116.848 39.2903 116.87 39.1377 116.935 39.0069L119.203 33.8405L114.865 30.5924C110.069 26.9956 104.139 25.0119 98.1447 25.0119H88.9455C88.7275 25.0119 88.5095 24.9465 88.3351 24.8157L78.6781 18.2542C73.4028 14.6791 67.2554 12.7826 60.8901 12.7826H38.0883L12.2129 20.6957V21.742H13.5208C14.1312 21.742 14.6108 22.2216 14.6108 22.832V32.2056C14.6108 32.8159 14.1312 33.2955 13.5208 33.2955H12.2129V39.2467L15.4827 43.5411H21.0633V45.721H14.9377C14.589 45.721 14.2838 45.5684 14.0658 45.285L10.2509 40.2712C10.0984 40.075 10.033 39.857 10.033 39.6172V32.2056C10.033 31.5952 10.5125 31.1156 11.1229 31.1156H12.4309V23.9219H11.1229C10.5125 23.9219 10.033 23.4423 10.033 22.832V19.8891C10.033 19.4095 10.3381 18.9953 10.7959 18.8428L37.6087 10.6681C37.7177 10.6463 37.8267 10.6245 37.9357 10.6245H60.8901C67.6914 10.6245 74.2747 12.6518 79.8989 16.4667L89.2725 22.832H98.1447C104.597 22.832 111.006 24.9683 116.173 28.8485L121.208 32.6197C121.622 32.9249 121.753 33.4699 121.557 33.9277L119.028 39.6826V44.631C119.028 45.2414 118.549 45.721 117.938 45.721Z" fill="#655D4D"/>
<path d="M76.1277 43.5411H91.7358V45.721H76.1277V43.5411Z" fill="#655D4D"/>
<path d="M39.5707 43.5411H71.7679V45.721H39.5707V43.5411Z" fill="#655D4D"/>
<path d="M18.2512 33.2955H13.5208C12.9104 33.2955 12.4309 32.8159 12.4309 32.2056V22.832C12.4309 22.2216 12.9104 21.742 13.5208 21.742H18.273C18.709 21.742 19.1014 22.0036 19.2758 22.396L21.5647 27.7368C21.6954 28.0419 21.6736 28.4125 21.5211 28.6959L19.2322 32.7287C19.0142 33.0775 18.6436 33.2955 18.2512 33.2955ZM14.6108 31.1156H17.619L19.3194 28.1073L17.5536 23.9219H14.6108V31.1156Z" fill="#655D4D"/>
<path d="M82.1878 24.5759H65.8385C65.7731 24.5759 65.7295 24.5759 65.6641 24.5541L43.7561 21.1752L44.0831 19.0171L65.9257 22.396H78.7871L77.8934 21.7638C72.4872 17.9054 66.1219 15.8563 59.4732 15.8563H40.0502L34.3389 17.5348L39.7451 18.3632L39.4181 20.5213L29.1725 18.9517C28.6711 18.8645 28.2788 18.4504 28.257 17.949C28.2134 17.4476 28.5403 16.968 29.0417 16.8372L39.6143 13.7418C39.7233 13.72 39.8105 13.6982 39.9194 13.6982H59.495C66.6015 13.6982 73.4028 15.8781 79.1795 19.9981L82.8418 22.614C83.2341 22.8974 83.3867 23.377 83.2559 23.8347C83.0816 24.2707 82.6674 24.5759 82.1878 24.5759Z" fill="#655D4D"/>
<path d="M52.5847 22.5486C52.5193 22.5486 52.4757 22.5486 52.4103 22.5268L47.9633 21.851C47.4401 21.7638 47.0477 21.306 47.0477 20.7829V14.7663C47.0477 14.156 47.5273 13.6764 48.1377 13.6764H52.5847C53.1951 13.6764 53.6746 14.156 53.6746 14.7663V21.4368C53.6746 21.7638 53.5438 22.0472 53.3041 22.2652C53.1079 22.4396 52.8463 22.5486 52.5847 22.5486ZM49.2276 19.8237L51.4947 20.1725V15.8563H49.2276V19.8237Z" fill="#655D4D"/>
<path d="M87.6812 40.5328L52.2359 38.4183C51.9307 38.3965 51.6473 38.2439 51.4511 38.0041L44.7152 29.5025C44.4972 29.2409 44.4318 28.8921 44.519 28.5651C44.6062 28.2381 44.8242 27.9765 45.1294 27.824L52.1705 24.6631C52.3667 24.5759 52.5629 24.5541 52.7809 24.5759L87.3106 29.8077L86.9836 31.9658L52.7591 26.7994L47.3093 29.2409L52.8681 36.2602L87.8337 38.3529L87.6812 40.5328Z" fill="#655D4D"/>
<path d="M113.796 32.4236H120.554V34.6035H113.796V32.4236Z" fill="#655D4D"/>
</svg>
