<svg width="57" height="62" viewBox="0 0 57 62" fill="none" xmlns="http://www.w3.org/2000/svg">
<path fill-rule="evenodd" clip-rule="evenodd" d="M35.6553 55.6687C36.0669 56.334 36.7251 56.8094 37.4861 56.9909C38.2471 57.1725 39.049 57.0455 39.7166 56.6377C40.3842 56.2299 40.8633 55.5744 41.0492 54.8145C41.2351 54.0546 41.1127 53.252 40.7087 52.582L33.9269 41.579L32.5036 35.82C32.4354 35.8997 32.3685 35.9799 32.3021 36.061L27.7026 41.0081L28.2661 43.2854C28.3309 43.6467 28.4626 43.9927 28.6542 44.3058L35.6553 55.6687ZM13.0332 53.0415L17.4404 41.3682C17.5952 40.9557 17.8394 40.5827 18.1557 40.2759L25.0424 32.652V20.1436C25.0443 19.1949 25.4219 18.2856 26.0927 17.6148C26.7636 16.944 27.6728 16.5664 28.6215 16.5645C29.586 16.5645 29.995 16.8313 30.7787 17.2238L45.6634 25.8175C45.9631 25.9911 46.2257 26.222 46.4361 26.497C46.6466 26.7721 46.8008 27.0859 46.89 27.4206C46.9791 27.7552 47.0015 28.1042 46.9559 28.4475C46.9102 28.7908 46.7973 29.1217 46.6237 29.4214C46.4502 29.7211 46.2193 29.9837 45.9442 30.1942C45.6691 30.4046 45.3553 30.5588 45.0207 30.648C44.686 30.7372 44.3371 30.7596 43.9938 30.7139C43.6504 30.6682 43.3195 30.5554 43.0198 30.3818L32.2003 24.1351V32.5279C32.2003 34.0714 32.0024 34.0128 31.15 35.0564L22.8427 43.9914L18.6308 55.1489C18.3513 55.8911 17.7884 56.4919 17.0659 56.819C16.3435 57.1462 15.5207 57.173 14.7785 56.8935C14.0363 56.614 13.4355 56.0511 13.1083 55.3287C12.7812 54.6062 12.7544 53.7834 13.0339 53.0412L13.0332 53.0415ZM27.2357 4.70996C26.3716 4.70996 25.527 4.96618 24.8085 5.44623C24.0901 5.92627 23.5302 6.60858 23.1995 7.40686C22.8688 8.20515 22.7823 9.08356 22.9509 9.93101C23.1195 10.7785 23.5355 11.5569 24.1465 12.1679C24.7575 12.7789 25.5359 13.1949 26.3834 13.3635C27.2308 13.5321 28.1093 13.4456 28.9075 13.1149C29.7058 12.7843 30.3881 12.2243 30.8682 11.5059C31.3482 10.7874 31.6044 9.94277 31.6044 9.07871C31.6044 7.92005 31.1442 6.80884 30.3249 5.98954C29.5056 5.17024 28.3944 4.70996 27.2357 4.70996ZM23.5148 27.9151V20.2611L20.0505 23.8165L12.8091 25.8582C12.1378 26.0444 11.5674 26.4888 11.2225 27.0942C10.8777 27.6996 10.7864 28.4168 10.9686 29.0893C11.1507 29.7618 11.5916 30.3348 12.1949 30.6833C12.7982 31.0318 13.5149 31.1274 14.1885 30.9493L22.3982 28.7268C22.6767 28.6549 22.9301 28.5076 23.1305 28.3012L23.5148 27.9151Z" fill="#655D4D"/>
</svg>
