<svg width="358" height="38" viewBox="0 0 358 38" fill="none" xmlns="http://www.w3.org/2000/svg">
<path d="M20.0857 0.62085L37.547 37.5378H31.6131L29.2298 32.2361H18.1888C16.1135 32.2361 14.2976 32.4307 12.7412 32.8198C11.1848 33.1765 9.93636 33.6305 8.99601 34.1817C8.08808 34.7329 7.4882 35.2842 7.19637 35.8354L6.27223 37.5378H0.532837L16.2432 5.09563L14.249 0.62085H20.0857ZM18.9183 11.5646L10.8929 28.9287C11.6063 28.3126 12.7412 27.8262 14.2976 27.4695C15.8541 27.0804 17.7996 26.8859 20.1343 26.8859H26.8465L18.9183 11.5646Z" fill="white"/>
<path d="M44.3345 1.25316H49.6361V32.2361H69.7726V37.5378H44.3345V1.25316Z" fill="white"/>
<path d="M90.3138 37.5378H85.1581V6.60344H72.2201V1.25316H103.106V6.60344H90.3138V37.5378Z" fill="white"/>
<path d="M121.944 17.2067C124.117 14.9369 126.079 12.4077 127.83 9.61905C129.581 6.83042 130.975 4.04179 132.013 1.25316H138.092C134.98 8.54899 130.472 15.4071 124.571 21.8274V37.5378H119.318V21.8274C113.416 15.4071 108.909 8.54899 105.796 1.25316H111.876C112.914 4.04179 114.308 6.83042 116.059 9.61905C117.81 12.4077 119.772 14.9369 121.944 17.2067Z" fill="white"/>
<path d="M148.349 1.25316L171.647 28.9773V1.25316H176.997V37.5378H171.744L150.927 12.586V37.5378H145.722V6.36024L141.491 1.25316H148.349Z" fill="white"/>
<path d="M216.066 0.62085L233.528 37.5378H227.594L225.21 32.2361H214.169C212.094 32.2361 210.278 32.4307 208.722 32.8198C207.165 33.1765 205.917 33.6305 204.977 34.1817C204.069 34.7329 203.469 35.2842 203.177 35.8354L202.253 37.5378H196.513L212.224 5.09563L210.23 0.62085H216.066ZM214.899 11.5646L206.874 28.9287C207.587 28.3126 208.722 27.8262 210.278 27.4695C211.835 27.0804 213.78 26.8859 216.115 26.8859H222.827L214.899 11.5646Z" fill="white"/>
<path d="M254.211 1.25316C257.422 1.25316 260.324 2.0638 262.918 3.6851C265.544 5.3064 267.603 7.49515 269.095 10.2514C270.586 13.0076 271.332 16.007 271.332 19.2496C271.332 21.6815 270.846 24.0972 269.873 26.4967C268.933 28.8638 267.619 30.9391 265.933 32.7225C264.312 34.4735 262.593 35.7219 260.778 36.4677C258.962 37.1811 256.822 37.5378 254.357 37.5378H240.933V6.60344H238.063L235.729 1.25316H254.211ZM254.357 32.2361C256.627 32.2361 258.637 31.6687 260.388 30.5338C262.172 29.3664 263.55 27.8262 264.523 25.9131C265.496 24 265.982 21.9085 265.982 19.6387C265.982 17.2716 265.512 15.099 264.571 13.121C263.663 11.1431 262.318 9.57041 260.534 8.40308C258.751 7.20332 256.66 6.60344 254.26 6.60344H246.137V32.2361H254.357Z" fill="white"/>
<path d="M292.872 0.62085L310.333 37.5378H304.399L302.016 32.2361H290.975C288.9 32.2361 287.084 32.4307 285.528 32.8198C283.971 33.1765 282.723 33.6305 281.782 34.1817C280.874 34.7329 280.275 35.2842 279.983 35.8354L279.059 37.5378H273.319L289.03 5.09563L287.035 0.62085H292.872ZM291.705 11.5646L283.679 28.9287C284.393 28.3126 285.528 27.8262 287.084 27.4695C288.64 27.0804 290.586 26.8859 292.921 26.8859H299.633L291.705 11.5646Z" fill="white"/>
<path d="M323.395 12.586V37.5378H318.191V6.36024L313.959 1.25316H320.817L335.652 19.055L350.682 1.25316H357.54L353.308 6.36024V37.5378H348.104V12.586L335.701 27.4209L323.395 12.586Z" fill="white"/>
</svg>
